<?xml version="1.0" encoding="UTF-8" standalone="no"?>
<!DOCTYPE svg PUBLIC "-//W3C//DTD SVG 1.1//EN"
 "http://www.w3.org/Graphics/SVG/1.1/DTD/svg11.dtd">
<!-- Generated by graphviz version 9.0.0 (20230911.1827)
 -->
<!-- Title: pastafarianism Pages: 1 -->
<svg width="1818pt" height="235pt"
 viewBox="0.00 0.00 1817.82 234.53" xmlns="http://www.w3.org/2000/svg" xmlns:xlink="http://www.w3.org/1999/xlink">
<g id="graph0" class="graph" transform="scale(1 1) rotate(0) translate(4 230.53)">
<title>pastafarianism</title>
<polygon fill="white" stroke="none" points="-4,4 -4,-230.53 1813.82,-230.53 1813.82,4 -4,4"/>
<!-- 87355232&#45;8ad6&#45;484e&#45;b363&#45;38536e737846 -->
<g id="node1" class="node">
<title>87355232&#45;8ad6&#45;484e&#45;b363&#45;38536e737846</title>
<polygon fill="cyan" stroke="black" points="825.2,-226.53 741.7,-195.28 825.2,-164.03 908.7,-195.28 825.2,-226.53"/>
<text text-anchor="middle" x="825.2" y="-187.9" font-family="Times New Roman,serif" font-size="20.00">Selector</text>
</g>
<!-- 3f017683&#45;7aa3&#45;40d3&#45;b2be&#45;cc32784313a1 -->
<g id="node2" class="node">
<title>3f017683&#45;7aa3&#45;40d3&#45;b2be&#45;cc32784313a1</title>
<ellipse fill="yellow" stroke="black" cx="282.2" cy="-104.11" rx="161.93" ry="22.1"/>
<text text-anchor="middle" x="282.2" y="-96.74" font-family="Times New Roman,serif" font-size="20.00">Is(ACTemperature,Down)</text>
</g>
<!-- 87355232&#45;8ad6&#45;484e&#45;b363&#45;38536e737846&#45;&gt;3f017683&#45;7aa3&#45;40d3&#45;b2be&#45;cc32784313a1 -->
<g id="edge1" class="edge">
<title>87355232&#45;8ad6&#45;484e&#45;b363&#45;38536e737846&#45;&gt;3f017683&#45;7aa3&#45;40d3&#45;b2be&#45;cc32784313a1</title>
<path fill="none" stroke="black" d="M768.11,-184.91C679.84,-170.41 508.52,-142.28 394.73,-123.59"/>
<polygon fill="black" stroke="black" points="395.49,-120.17 385.05,-122 394.35,-127.08 395.49,-120.17"/>
</g>
<!-- b900e9cb&#45;c0a8&#45;4e8d&#45;8a9b&#45;d871012abefb -->
<g id="node3" class="node">
<title>b900e9cb&#45;c0a8&#45;4e8d&#45;8a9b&#45;d871012abefb</title>
<polygon fill="orange" stroke="black" points="606.72,-94.2 606.72,-114.02 564.24,-128.03 504.16,-128.03 461.68,-114.02 461.68,-94.2 504.16,-80.19 564.24,-80.19 606.72,-94.2"/>
<text text-anchor="middle" x="534.2" y="-96.74" font-family="Times New Roman,serif" font-size="20.00">Sequence</text>
</g>
<!-- 87355232&#45;8ad6&#45;484e&#45;b363&#45;38536e737846&#45;&gt;b900e9cb&#45;c0a8&#45;4e8d&#45;8a9b&#45;d871012abefb -->
<g id="edge2" class="edge">
<title>87355232&#45;8ad6&#45;484e&#45;b363&#45;38536e737846&#45;&gt;b900e9cb&#45;c0a8&#45;4e8d&#45;8a9b&#45;d871012abefb</title>
<path fill="none" stroke="black" d="M780.05,-180.44C731.03,-165.43 652.4,-141.33 597.29,-124.44"/>
<polygon fill="black" stroke="black" points="598.63,-121.19 588.04,-121.61 596.58,-127.89 598.63,-121.19"/>
</g>
<!-- b64db1a4&#45;d79f&#45;47b4&#45;99db&#45;f184b38d1361 -->
<g id="node7" class="node">
<title>b64db1a4&#45;d79f&#45;47b4&#45;99db&#45;f184b38d1361</title>
<polygon fill="orange" stroke="black" points="897.72,-94.2 897.72,-114.02 855.24,-128.03 795.16,-128.03 752.68,-114.02 752.68,-94.2 795.16,-80.19 855.24,-80.19 897.72,-94.2"/>
<text text-anchor="middle" x="825.2" y="-96.74" font-family="Times New Roman,serif" font-size="20.00">Sequence</text>
</g>
<!-- 87355232&#45;8ad6&#45;484e&#45;b363&#45;38536e737846&#45;&gt;b64db1a4&#45;d79f&#45;47b4&#45;99db&#45;f184b38d1361 -->
<g id="edge6" class="edge">
<title>87355232&#45;8ad6&#45;484e&#45;b363&#45;38536e737846&#45;&gt;b64db1a4&#45;d79f&#45;47b4&#45;99db&#45;f184b38d1361</title>
<path fill="none" stroke="black" d="M825.2,-163.59C825.2,-155.97 825.2,-147.74 825.2,-139.93"/>
<polygon fill="black" stroke="black" points="828.7,-140.04 825.2,-130.04 821.7,-140.04 828.7,-140.04"/>
</g>
<!-- 8108bcba&#45;dbeb&#45;4784&#45;8f1f&#45;eb9ede4ffb0e -->
<g id="node10" class="node">
<title>8108bcba&#45;dbeb&#45;4784&#45;8f1f&#45;eb9ede4ffb0e</title>
<polygon fill="orange" stroke="black" points="1264.72,-94.2 1264.72,-114.02 1222.24,-128.03 1162.16,-128.03 1119.68,-114.02 1119.68,-94.2 1162.16,-80.19 1222.24,-80.19 1264.72,-94.2"/>
<text text-anchor="middle" x="1192.2" y="-96.74" font-family="Times New Roman,serif" font-size="20.00">Sequence</text>
</g>
<!-- 87355232&#45;8ad6&#45;484e&#45;b363&#45;38536e737846&#45;&gt;8108bcba&#45;dbeb&#45;4784&#45;8f1f&#45;eb9ede4ffb0e -->
<g id="edge9" class="edge">
<title>87355232&#45;8ad6&#45;484e&#45;b363&#45;38536e737846&#45;&gt;8108bcba&#45;dbeb&#45;4784&#45;8f1f&#45;eb9ede4ffb0e</title>
<path fill="none" stroke="black" d="M874.69,-182.25C938.8,-166.68 1050.9,-139.44 1123.3,-121.85"/>
<polygon fill="black" stroke="black" points="1123.77,-125.34 1132.66,-119.58 1122.11,-118.54 1123.77,-125.34"/>
</g>
<!-- e65ce322&#45;edaa&#45;4677&#45;ab68&#45;4795e57648da -->
<g id="node14" class="node">
<title>e65ce322&#45;edaa&#45;4677&#45;ab68&#45;4795e57648da</title>
<polygon fill="orange" stroke="black" points="1674.72,-94.2 1674.72,-114.02 1632.24,-128.03 1572.16,-128.03 1529.68,-114.02 1529.68,-94.2 1572.16,-80.19 1632.24,-80.19 1674.72,-94.2"/>
<text text-anchor="middle" x="1602.2" y="-96.74" font-family="Times New Roman,serif" font-size="20.00">Sequence</text>
</g>
<!-- 87355232&#45;8ad6&#45;484e&#45;b363&#45;38536e737846&#45;&gt;e65ce322&#45;edaa&#45;4677&#45;ab68&#45;4795e57648da -->
<g id="edge13" class="edge">
<title>87355232&#45;8ad6&#45;484e&#45;b363&#45;38536e737846&#45;&gt;e65ce322&#45;edaa&#45;4677&#45;ab68&#45;4795e57648da</title>
<path fill="none" stroke="black" d="M888.12,-187.06C1027.4,-171.08 1361.75,-132.71 1518.47,-114.72"/>
<polygon fill="black" stroke="black" points="1518.4,-118.25 1527.94,-113.63 1517.61,-111.3 1518.4,-118.25"/>
</g>
<!-- 10ef3ff4&#45;7acb&#45;4991&#45;9e63&#45;6e489c3ef22d -->
<g id="node4" class="node">
<title>10ef3ff4&#45;7acb&#45;4991&#45;9e63&#45;6e489c3ef22d</title>
<ellipse fill="yellow" stroke="black" cx="114.2" cy="-22.1" rx="114.2" ry="22.1"/>
<text text-anchor="middle" x="114.2" y="-14.72" font-family="Times New Roman,serif" font-size="20.00">Holding(Nothing)</text>
</g>
<!-- b900e9cb&#45;c0a8&#45;4e8d&#45;8a9b&#45;d871012abefb&#45;&gt;10ef3ff4&#45;7acb&#45;4991&#45;9e63&#45;6e489c3ef22d -->
<g id="edge3" class="edge">
<title>b900e9cb&#45;c0a8&#45;4e8d&#45;8a9b&#45;d871012abefb&#45;&gt;10ef3ff4&#45;7acb&#45;4991&#45;9e63&#45;6e489c3ef22d</title>
<path fill="none" stroke="black" d="M481.26,-87.23C471.95,-84.69 462.32,-82.24 453.2,-80.19 358.23,-58.91 333.16,-60.42 237.2,-44.19 228.06,-42.65 218.55,-41.03 209.03,-39.41"/>
<polygon fill="black" stroke="black" points="209.82,-35.99 199.38,-37.76 208.65,-42.89 209.82,-35.99"/>
</g>
<!-- a3869371&#45;404d&#45;4085&#45;932b&#45;232e188fb133 -->
<g id="node5" class="node">
<title>a3869371&#45;404d&#45;4085&#45;932b&#45;232e188fb133</title>
<ellipse fill="yellow" stroke="black" cx="317.2" cy="-22.1" rx="71.24" ry="22.1"/>
<text text-anchor="middle" x="317.2" y="-14.72" font-family="Times New Roman,serif" font-size="20.00">Is(AC,On)</text>
</g>
<!-- b900e9cb&#45;c0a8&#45;4e8d&#45;8a9b&#45;d871012abefb&#45;&gt;a3869371&#45;404d&#45;4085&#45;932b&#45;232e188fb133 -->
<g id="edge4" class="edge">
<title>b900e9cb&#45;c0a8&#45;4e8d&#45;8a9b&#45;d871012abefb&#45;&gt;a3869371&#45;404d&#45;4085&#45;932b&#45;232e188fb133</title>
<path fill="none" stroke="black" d="M486.58,-85.55C453,-73.17 407.91,-56.55 372.7,-43.56"/>
<polygon fill="black" stroke="black" points="374.13,-40.36 363.53,-40.18 371.71,-46.93 374.13,-40.36"/>
</g>
<!-- 3a5cbe8f&#45;7672&#45;4a34&#45;91d1&#45;87502aed457c -->
<g id="node6" class="node">
<title>3a5cbe8f&#45;7672&#45;4a34&#45;91d1&#45;87502aed457c</title>
<polygon fill="lawngreen" stroke="black" points="661.82,-40.1 406.57,-40.1 406.57,-4.1 661.82,-4.1 661.82,-40.1"/>
<text text-anchor="middle" x="534.2" y="-14.72" font-family="Times New Roman,serif" font-size="20.00">Turn(ACTemperature,Down)</text>
</g>
<!-- b900e9cb&#45;c0a8&#45;4e8d&#45;8a9b&#45;d871012abefb&#45;&gt;3a5cbe8f&#45;7672&#45;4a34&#45;91d1&#45;87502aed457c -->
<g id="edge5" class="edge">
<title>b900e9cb&#45;c0a8&#45;4e8d&#45;8a9b&#45;d871012abefb&#45;&gt;3a5cbe8f&#45;7672&#45;4a34&#45;91d1&#45;87502aed457c</title>
<path fill="none" stroke="black" d="M534.2,-79.97C534.2,-71.24 534.2,-61.2 534.2,-52.01"/>
<polygon fill="black" stroke="black" points="537.7,-52.11 534.2,-42.11 530.7,-52.11 537.7,-52.11"/>
</g>
<!-- c6eca6dd&#45;9fca&#45;4bd3&#45;b054&#45;9b43fe02613a -->
<g id="node8" class="node">
<title>c6eca6dd&#45;9fca&#45;4bd3&#45;b054&#45;9b43fe02613a</title>
<ellipse fill="yellow" stroke="black" cx="751.2" cy="-22.1" rx="71.24" ry="22.1"/>
<text text-anchor="middle" x="751.2" y="-14.72" font-family="Times New Roman,serif" font-size="20.00">Is(AC,On)</text>
</g>
<!-- b64db1a4&#45;d79f&#45;47b4&#45;99db&#45;f184b38d1361&#45;&gt;c6eca6dd&#45;9fca&#45;4bd3&#45;b054&#45;9b43fe02613a -->
<g id="edge7" class="edge">
<title>b64db1a4&#45;d79f&#45;47b4&#45;99db&#45;f184b38d1361&#45;&gt;c6eca6dd&#45;9fca&#45;4bd3&#45;b054&#45;9b43fe02613a</title>
<path fill="none" stroke="black" d="M803.79,-79.97C795.77,-71.29 786.55,-61.33 778.1,-52.18"/>
<polygon fill="black" stroke="black" points="780.67,-49.81 771.31,-44.85 775.53,-54.56 780.67,-49.81"/>
</g>
<!-- df04f6f4&#45;d471&#45;4519&#45;ab9e&#45;5d5bd8dfbd4c -->
<g id="node9" class="node">
<title>df04f6f4&#45;d471&#45;4519&#45;ab9e&#45;5d5bd8dfbd4c</title>
<polygon fill="lawngreen" stroke="black" points="957.82,-40.1 840.57,-40.1 840.57,-4.1 957.82,-4.1 957.82,-40.1"/>
<text text-anchor="middle" x="899.2" y="-14.72" font-family="Times New Roman,serif" font-size="20.00">FreeHands()</text>
</g>
<!-- b64db1a4&#45;d79f&#45;47b4&#45;99db&#45;f184b38d1361&#45;&gt;df04f6f4&#45;d471&#45;4519&#45;ab9e&#45;5d5bd8dfbd4c -->
<g id="edge8" class="edge">
<title>b64db1a4&#45;d79f&#45;47b4&#45;99db&#45;f184b38d1361&#45;&gt;df04f6f4&#45;d471&#45;4519&#45;ab9e&#45;5d5bd8dfbd4c</title>
<path fill="none" stroke="black" d="M846.6,-79.97C855.58,-70.26 866.06,-58.93 875.29,-48.94"/>
<polygon fill="black" stroke="black" points="877.77,-51.42 881.99,-41.71 872.63,-46.67 877.77,-51.42"/>
</g>
<!-- 82a23405&#45;c3c6&#45;47dc&#45;bf7b&#45;0636e3efe52c -->
<g id="node11" class="node">
<title>82a23405&#45;c3c6&#45;47dc&#45;bf7b&#45;0636e3efe52c</title>
<ellipse fill="yellow" stroke="black" cx="1090.2" cy="-22.1" rx="114.2" ry="22.1"/>
<text text-anchor="middle" x="1090.2" y="-14.72" font-family="Times New Roman,serif" font-size="20.00">Holding(Nothing)</text>
</g>
<!-- 8108bcba&#45;dbeb&#45;4784&#45;8f1f&#45;eb9ede4ffb0e&#45;&gt;82a23405&#45;c3c6&#45;47dc&#45;bf7b&#45;0636e3efe52c -->
<g id="edge10" class="edge">
<title>8108bcba&#45;dbeb&#45;4784&#45;8f1f&#45;eb9ede4ffb0e&#45;&gt;82a23405&#45;c3c6&#45;47dc&#45;bf7b&#45;0636e3efe52c</title>
<path fill="none" stroke="black" d="M1162.42,-79.75C1150.89,-70.71 1137.61,-60.29 1125.6,-50.87"/>
<polygon fill="black" stroke="black" points="1127.93,-48.25 1117.9,-44.83 1123.61,-53.76 1127.93,-48.25"/>
</g>
<!-- 010d42ee&#45;18b3&#45;4a0e&#45;9be1&#45;eab67afaca60 -->
<g id="node12" class="node">
<title>010d42ee&#45;18b3&#45;4a0e&#45;9be1&#45;eab67afaca60</title>
<ellipse fill="yellow" stroke="black" cx="1294.2" cy="-22.1" rx="72.3" ry="22.1"/>
<text text-anchor="middle" x="1294.2" y="-14.72" font-family="Times New Roman,serif" font-size="20.00">Is(AC,Off)</text>
</g>
<!-- 8108bcba&#45;dbeb&#45;4784&#45;8f1f&#45;eb9ede4ffb0e&#45;&gt;010d42ee&#45;18b3&#45;4a0e&#45;9be1&#45;eab67afaca60 -->
<g id="edge11" class="edge">
<title>8108bcba&#45;dbeb&#45;4784&#45;8f1f&#45;eb9ede4ffb0e&#45;&gt;010d42ee&#45;18b3&#45;4a0e&#45;9be1&#45;eab67afaca60</title>
<path fill="none" stroke="black" d="M1221.97,-79.75C1233.78,-70.49 1247.44,-59.78 1259.68,-50.18"/>
<polygon fill="black" stroke="black" points="1261.8,-52.96 1267.51,-44.03 1257.48,-47.45 1261.8,-52.96"/>
</g>
<!-- 90cdf2ff&#45;98b0&#45;4454&#45;803b&#45;feee5f5475bf -->
<g id="node13" class="node">
<title>90cdf2ff&#45;98b0&#45;4454&#45;803b&#45;feee5f5475bf</title>
<polygon fill="lawngreen" stroke="black" points="1511.7,-40.1 1384.7,-40.1 1384.7,-4.1 1511.7,-4.1 1511.7,-40.1"/>
<text text-anchor="middle" x="1448.2" y="-14.72" font-family="Times New Roman,serif" font-size="20.00">Turn(AC,On)</text>
</g>
<!-- 8108bcba&#45;dbeb&#45;4784&#45;8f1f&#45;eb9ede4ffb0e&#45;&gt;90cdf2ff&#45;98b0&#45;4454&#45;803b&#45;feee5f5475bf -->
<g id="edge12" class="edge">
<title>8108bcba&#45;dbeb&#45;4784&#45;8f1f&#45;eb9ede4ffb0e&#45;&gt;90cdf2ff&#45;98b0&#45;4454&#45;803b&#45;feee5f5475bf</title>
<path fill="none" stroke="black" d="M1244,-86.92C1283.65,-74.53 1338.64,-57.34 1381.56,-43.93"/>
<polygon fill="black" stroke="black" points="1382.53,-47.29 1391.03,-40.96 1380.44,-40.61 1382.53,-47.29"/>
</g>
<!-- 7d0c1403&#45;c5d9&#45;4bcd&#45;a0db&#45;f3e527a3be93 -->
<g id="node15" class="node">
<title>7d0c1403&#45;c5d9&#45;4bcd&#45;a0db&#45;f3e527a3be93</title>
<ellipse fill="yellow" stroke="black" cx="1602.2" cy="-22.1" rx="72.3" ry="22.1"/>
<text text-anchor="middle" x="1602.2" y="-14.72" font-family="Times New Roman,serif" font-size="20.00">Is(AC,Off)</text>
</g>
<!-- e65ce322&#45;edaa&#45;4677&#45;ab68&#45;4795e57648da&#45;&gt;7d0c1403&#45;c5d9&#45;4bcd&#45;a0db&#45;f3e527a3be93 -->
<g id="edge14" class="edge">
<title>e65ce322&#45;edaa&#45;4677&#45;ab68&#45;4795e57648da&#45;&gt;7d0c1403&#45;c5d9&#45;4bcd&#45;a0db&#45;f3e527a3be93</title>
<path fill="none" stroke="black" d="M1602.2,-79.97C1602.2,-72.46 1602.2,-63.99 1602.2,-55.92"/>
<polygon fill="black" stroke="black" points="1605.7,-56.06 1602.2,-46.06 1598.7,-56.06 1605.7,-56.06"/>
</g>
<!-- 931d4ea6&#45;c661&#45;4ea8&#45;9016&#45;2d4e17d30b19 -->
<g id="node16" class="node">
<title>931d4ea6&#45;c661&#45;4ea8&#45;9016&#45;2d4e17d30b19</title>
<polygon fill="lawngreen" stroke="black" points="1809.82,-40.1 1692.57,-40.1 1692.57,-4.1 1809.82,-4.1 1809.82,-40.1"/>
<text text-anchor="middle" x="1751.2" y="-14.72" font-family="Times New Roman,serif" font-size="20.00">FreeHands()</text>
</g>
<!-- e65ce322&#45;edaa&#45;4677&#45;ab68&#45;4795e57648da&#45;&gt;931d4ea6&#45;c661&#45;4ea8&#45;9016&#45;2d4e17d30b19 -->
<g id="edge15" class="edge">
<title>e65ce322&#45;edaa&#45;4677&#45;ab68&#45;4795e57648da&#45;&gt;931d4ea6&#45;c661&#45;4ea8&#45;9016&#45;2d4e17d30b19</title>
<path fill="none" stroke="black" d="M1640.57,-82.51C1661.56,-71.23 1687.6,-57.25 1709.14,-45.68"/>
<polygon fill="black" stroke="black" points="1710.51,-48.92 1717.67,-41.1 1707.2,-42.75 1710.51,-48.92"/>
</g>
</g>
</svg>
