<?xml version="1.0" encoding="UTF-8" standalone="no"?>
<!DOCTYPE svg PUBLIC "-//W3C//DTD SVG 1.1//EN"
 "http://www.w3.org/Graphics/SVG/1.1/DTD/svg11.dtd">
<!-- Generated by graphviz version 9.0.0 (20230911.1827)
 -->
<!-- Title: pastafarianism Pages: 1 -->
<svg width="1824pt" height="334pt"
 viewBox="0.00 0.00 1823.74 334.14" xmlns="http://www.w3.org/2000/svg" xmlns:xlink="http://www.w3.org/1999/xlink">
<g id="graph0" class="graph" transform="scale(1 1) rotate(0) translate(4 330.14)">
<title>pastafarianism</title>
<polygon fill="white" stroke="none" points="-4,4 -4,-330.14 1819.74,-330.14 1819.74,4 -4,4"/>
<!-- 2db2976c&#45;cdda&#45;4837&#45;b4d3&#45;4dbbb4538910 -->
<g id="node1" class="node">
<title>2db2976c&#45;cdda&#45;4837&#45;b4d3&#45;4dbbb4538910</title>
<polygon fill="#b0ffff" stroke="black" points="700.74,-326.14 675.74,-326.14 675.74,-294.89 700.74,-294.89 700.74,-326.14"/>
<text text-anchor="middle" x="688.24" y="-303.14" font-family="Times New Roman,serif" font-size="20.00">?</text>
</g>
<!-- b3ce54db&#45;f0ff&#45;4840&#45;86e3&#45;ef7d95c6ebab -->
<g id="node2" class="node">
<title>b3ce54db&#45;f0ff&#45;4840&#45;86e3&#45;ef7d95c6ebab</title>
<polygon fill="#ff8080" stroke="black" points="278.37,-258.89 242.12,-258.89 242.12,-227.64 278.37,-227.64 278.37,-258.89"/>
<text text-anchor="middle" x="260.24" y="-235.89" font-family="Times New Roman,serif" font-size="20.00">→</text>
</g>
<!-- 2db2976c&#45;cdda&#45;4837&#45;b4d3&#45;4dbbb4538910&#45;&gt;b3ce54db&#45;f0ff&#45;4840&#45;86e3&#45;ef7d95c6ebab -->
<g id="edge1" class="edge">
<title>2db2976c&#45;cdda&#45;4837&#45;b4d3&#45;4dbbb4538910&#45;&gt;b3ce54db&#45;f0ff&#45;4840&#45;86e3&#45;ef7d95c6ebab</title>
<path fill="none" stroke="black" d="M675.43,-307.56C616.97,-298.65 374.67,-261.71 289.78,-248.77"/>
<polygon fill="black" stroke="black" points="290.35,-245.31 279.94,-247.27 289.29,-252.23 290.35,-245.31"/>
</g>
<!-- c2dd86b2&#45;b9fe&#45;4f6e&#45;afae&#45;57346859eafa -->
<g id="node5" class="node">
<title>c2dd86b2&#45;b9fe&#45;4f6e&#45;afae&#45;57346859eafa</title>
<polygon fill="#ff8080" stroke="black" points="655.37,-258.89 619.12,-258.89 619.12,-227.64 655.37,-227.64 655.37,-258.89"/>
<text text-anchor="middle" x="637.24" y="-235.89" font-family="Times New Roman,serif" font-size="20.00">→</text>
</g>
<!-- 2db2976c&#45;cdda&#45;4837&#45;b4d3&#45;4dbbb4538910&#45;&gt;c2dd86b2&#45;b9fe&#45;4f6e&#45;afae&#45;57346859eafa -->
<g id="edge4" class="edge">
<title>2db2976c&#45;cdda&#45;4837&#45;b4d3&#45;4dbbb4538910&#45;&gt;c2dd86b2&#45;b9fe&#45;4f6e&#45;afae&#45;57346859eafa</title>
<path fill="none" stroke="black" d="M676.67,-294.71C670.47,-286.78 662.7,-276.83 655.69,-267.87"/>
<polygon fill="black" stroke="black" points="658.62,-265.93 649.7,-260.2 653.1,-270.24 658.62,-265.93"/>
</g>
<!-- bb7a8a0f&#45;cbd8&#45;4595&#45;be11&#45;ad28a431cdd7 -->
<g id="node15" class="node">
<title>bb7a8a0f&#45;cbd8&#45;4595&#45;be11&#45;ad28a431cdd7</title>
<polygon fill="#ff8080" stroke="black" points="757.37,-258.89 721.12,-258.89 721.12,-227.64 757.37,-227.64 757.37,-258.89"/>
<text text-anchor="middle" x="739.24" y="-235.89" font-family="Times New Roman,serif" font-size="20.00">→</text>
</g>
<!-- 2db2976c&#45;cdda&#45;4837&#45;b4d3&#45;4dbbb4538910&#45;&gt;bb7a8a0f&#45;cbd8&#45;4595&#45;be11&#45;ad28a431cdd7 -->
<g id="edge14" class="edge">
<title>2db2976c&#45;cdda&#45;4837&#45;b4d3&#45;4dbbb4538910&#45;&gt;bb7a8a0f&#45;cbd8&#45;4595&#45;be11&#45;ad28a431cdd7</title>
<path fill="none" stroke="black" d="M699.81,-294.71C706.01,-286.78 713.78,-276.83 720.79,-267.87"/>
<polygon fill="black" stroke="black" points="723.38,-270.24 726.78,-260.2 717.87,-265.93 723.38,-270.24"/>
</g>
<!-- 521017a2&#45;5249&#45;4dcf&#45;a960&#45;09032a615bf4 -->
<g id="node18" class="node">
<title>521017a2&#45;5249&#45;4dcf&#45;a960&#45;09032a615bf4</title>
<polygon fill="#ff8080" stroke="black" points="1208.37,-258.89 1172.12,-258.89 1172.12,-227.64 1208.37,-227.64 1208.37,-258.89"/>
<text text-anchor="middle" x="1190.24" y="-235.89" font-family="Times New Roman,serif" font-size="20.00">→</text>
</g>
<!-- 2db2976c&#45;cdda&#45;4837&#45;b4d3&#45;4dbbb4538910&#45;&gt;521017a2&#45;5249&#45;4dcf&#45;a960&#45;09032a615bf4 -->
<g id="edge17" class="edge">
<title>2db2976c&#45;cdda&#45;4837&#45;b4d3&#45;4dbbb4538910&#45;&gt;521017a2&#45;5249&#45;4dcf&#45;a960&#45;09032a615bf4</title>
<path fill="none" stroke="black" d="M701.15,-307.83C766.87,-299.29 1064.74,-260.58 1160.5,-248.13"/>
<polygon fill="black" stroke="black" points="1160.67,-251.64 1170.14,-246.88 1159.77,-244.69 1160.67,-251.64"/>
</g>
<!-- eb22ee5d&#45;c613&#45;41da&#45;a1a6&#45;c44c2b7fc4d1 -->
<g id="node3" class="node">
<title>eb22ee5d&#45;c613&#45;41da&#45;a1a6&#45;c44c2b7fc4d1</title>
<ellipse fill="#ffff80" stroke="black" cx="71.24" cy="-169.54" rx="71.24" ry="22.1"/>
<text text-anchor="middle" x="71.24" y="-162.17" font-family="Times New Roman,serif" font-size="20.00">Is(AC,On)</text>
</g>
<!-- b3ce54db&#45;f0ff&#45;4840&#45;86e3&#45;ef7d95c6ebab&#45;&gt;eb22ee5d&#45;c613&#45;41da&#45;a1a6&#45;c44c2b7fc4d1 -->
<g id="edge2" class="edge">
<title>b3ce54db&#45;f0ff&#45;4840&#45;86e3&#45;ef7d95c6ebab&#45;&gt;eb22ee5d&#45;c613&#45;41da&#45;a1a6&#45;c44c2b7fc4d1</title>
<path fill="none" stroke="black" d="M241.77,-235.26C215.2,-225.17 165.08,-206.15 126.02,-191.33"/>
<polygon fill="black" stroke="black" points="127.33,-188.08 116.74,-187.81 124.85,-194.63 127.33,-188.08"/>
</g>
<!-- 7f19976b&#45;2e24&#45;47b0&#45;bb26&#45;9c358cdfeb23 -->
<g id="node4" class="node">
<title>7f19976b&#45;2e24&#45;47b0&#45;bb26&#45;9c358cdfeb23</title>
<ellipse fill="#ffff80" stroke="black" cx="260.24" cy="-169.54" rx="99.88" ry="22.1"/>
<text text-anchor="middle" x="260.24" y="-162.17" font-family="Times New Roman,serif" font-size="20.00">Is(Floor,Clean)</text>
</g>
<!-- b3ce54db&#45;f0ff&#45;4840&#45;86e3&#45;ef7d95c6ebab&#45;&gt;7f19976b&#45;2e24&#45;47b0&#45;bb26&#45;9c358cdfeb23 -->
<g id="edge3" class="edge">
<title>b3ce54db&#45;f0ff&#45;4840&#45;86e3&#45;ef7d95c6ebab&#45;&gt;7f19976b&#45;2e24&#45;47b0&#45;bb26&#45;9c358cdfeb23</title>
<path fill="none" stroke="black" d="M260.24,-227.4C260.24,-220.35 260.24,-211.63 260.24,-203.14"/>
<polygon fill="black" stroke="black" points="263.74,-203.43 260.24,-193.43 256.74,-203.43 263.74,-203.43"/>
</g>
<!-- 2b2e8b9b&#45;862f&#45;43ac&#45;bb82&#45;57ba95d623e3 -->
<g id="node6" class="node">
<title>2b2e8b9b&#45;862f&#45;43ac&#45;bb82&#45;57ba95d623e3</title>
<ellipse fill="#ffff80" stroke="black" cx="492.24" cy="-169.54" rx="114.2" ry="22.1"/>
<text text-anchor="middle" x="492.24" y="-162.17" font-family="Times New Roman,serif" font-size="20.00">Holding(Nothing)</text>
</g>
<!-- c2dd86b2&#45;b9fe&#45;4f6e&#45;afae&#45;57346859eafa&#45;&gt;2b2e8b9b&#45;862f&#45;43ac&#45;bb82&#45;57ba95d623e3 -->
<g id="edge5" class="edge">
<title>c2dd86b2&#45;b9fe&#45;4f6e&#45;afae&#45;57346859eafa&#45;&gt;2b2e8b9b&#45;862f&#45;43ac&#45;bb82&#45;57ba95d623e3</title>
<path fill="none" stroke="black" d="M618.88,-233.18C599.84,-223.76 569.23,-208.62 542.87,-195.58"/>
<polygon fill="black" stroke="black" points="544.51,-192.49 533.99,-191.19 541.4,-198.76 544.51,-192.49"/>
</g>
<!-- f4f33a8f&#45;ff13&#45;493a&#45;a78f&#45;da05090f8336 -->
<g id="node7" class="node">
<title>f4f33a8f&#45;ff13&#45;493a&#45;a78f&#45;da05090f8336</title>
<polygon fill="#b0ffff" stroke="black" points="649.74,-185.17 624.74,-185.17 624.74,-153.92 649.74,-153.92 649.74,-185.17"/>
<text text-anchor="middle" x="637.24" y="-162.17" font-family="Times New Roman,serif" font-size="20.00">?</text>
</g>
<!-- c2dd86b2&#45;b9fe&#45;4f6e&#45;afae&#45;57346859eafa&#45;&gt;f4f33a8f&#45;ff13&#45;493a&#45;a78f&#45;da05090f8336 -->
<g id="edge6" class="edge">
<title>c2dd86b2&#45;b9fe&#45;4f6e&#45;afae&#45;57346859eafa&#45;&gt;f4f33a8f&#45;ff13&#45;493a&#45;a78f&#45;da05090f8336</title>
<path fill="none" stroke="black" d="M637.24,-227.4C637.24,-218.56 637.24,-207.07 637.24,-196.75"/>
<polygon fill="black" stroke="black" points="640.74,-196.9 637.24,-186.9 633.74,-196.9 640.74,-196.9"/>
</g>
<!-- a3256f70&#45;bcb0&#45;4ef0&#45;a81b&#45;741752b6d07e -->
<g id="node8" class="node">
<title>a3256f70&#45;bcb0&#45;4ef0&#45;a81b&#45;741752b6d07e</title>
<polygon fill="#ff8080" stroke="black" points="328.37,-111.44 292.12,-111.44 292.12,-80.19 328.37,-80.19 328.37,-111.44"/>
<text text-anchor="middle" x="310.24" y="-88.44" font-family="Times New Roman,serif" font-size="20.00">→</text>
</g>
<!-- f4f33a8f&#45;ff13&#45;493a&#45;a78f&#45;da05090f8336&#45;&gt;a3256f70&#45;bcb0&#45;4ef0&#45;a81b&#45;741752b6d07e -->
<g id="edge7" class="edge">
<title>f4f33a8f&#45;ff13&#45;493a&#45;a78f&#45;da05090f8336&#45;&gt;a3256f70&#45;bcb0&#45;4ef0&#45;a81b&#45;741752b6d07e</title>
<path fill="none" stroke="black" d="M624.28,-153.73C621.52,-151.3 618.46,-149.06 615.24,-147.44 522.69,-101.08 396.5,-95.84 339.87,-96.08"/>
<polygon fill="black" stroke="black" points="340.04,-92.57 330.08,-96.19 340.12,-99.57 340.04,-92.57"/>
</g>
<!-- e74e83a6&#45;bc77&#45;4dc9&#45;aa78&#45;4f400bc9a730 -->
<g id="node11" class="node">
<title>e74e83a6&#45;bc77&#45;4dc9&#45;aa78&#45;4f400bc9a730</title>
<polygon fill="#ff8080" stroke="black" points="665.37,-111.44 629.12,-111.44 629.12,-80.19 665.37,-80.19 665.37,-111.44"/>
<text text-anchor="middle" x="647.24" y="-88.44" font-family="Times New Roman,serif" font-size="20.00">→</text>
</g>
<!-- f4f33a8f&#45;ff13&#45;493a&#45;a78f&#45;da05090f8336&#45;&gt;e74e83a6&#45;bc77&#45;4dc9&#45;aa78&#45;4f400bc9a730 -->
<g id="edge10" class="edge">
<title>f4f33a8f&#45;ff13&#45;493a&#45;a78f&#45;da05090f8336&#45;&gt;e74e83a6&#45;bc77&#45;4dc9&#45;aa78&#45;4f400bc9a730</title>
<path fill="none" stroke="black" d="M639.31,-153.68C640.55,-144.83 642.15,-133.35 643.59,-123.03"/>
<polygon fill="black" stroke="black" points="647.05,-123.55 644.96,-113.16 640.12,-122.58 647.05,-123.55"/>
</g>
<!-- 813bbab4&#45;bc04&#45;427c&#45;9040&#45;a006399f5c45 -->
<g id="node9" class="node">
<title>813bbab4&#45;bc04&#45;427c&#45;9040&#45;a006399f5c45</title>
<ellipse fill="#ffff80" stroke="black" cx="160.24" cy="-22.1" rx="71.24" ry="22.1"/>
<text text-anchor="middle" x="160.24" y="-14.72" font-family="Times New Roman,serif" font-size="20.00">Is(AC,On)</text>
</g>
<!-- a3256f70&#45;bcb0&#45;4ef0&#45;a81b&#45;741752b6d07e&#45;&gt;813bbab4&#45;bc04&#45;427c&#45;9040&#45;a006399f5c45 -->
<g id="edge8" class="edge">
<title>a3256f70&#45;bcb0&#45;4ef0&#45;a81b&#45;741752b6d07e&#45;&gt;813bbab4&#45;bc04&#45;427c&#45;9040&#45;a006399f5c45</title>
<path fill="none" stroke="black" d="M291.85,-86.02C271.15,-76.13 236.72,-59.66 208.26,-46.06"/>
<polygon fill="black" stroke="black" points="209.98,-43 199.45,-41.84 206.96,-49.31 209.98,-43"/>
</g>
<!-- 94284302&#45;d3f9&#45;4a66&#45;bf32&#45;52eda963058e -->
<g id="node10" class="node">
<title>94284302&#45;d3f9&#45;4a66&#45;bf32&#45;52eda963058e</title>
<polygon fill="lightgreen" stroke="black" points="371.49,-40.1 248.99,-40.1 248.99,-4.1 371.49,-4.1 371.49,-40.1"/>
<text text-anchor="middle" x="310.24" y="-14.72" font-family="Times New Roman,serif" font-size="20.00">Clean(Floor)</text>
</g>
<!-- a3256f70&#45;bcb0&#45;4ef0&#45;a81b&#45;741752b6d07e&#45;&gt;94284302&#45;d3f9&#45;4a66&#45;bf32&#45;52eda963058e -->
<g id="edge9" class="edge">
<title>a3256f70&#45;bcb0&#45;4ef0&#45;a81b&#45;741752b6d07e&#45;&gt;94284302&#45;d3f9&#45;4a66&#45;bf32&#45;52eda963058e</title>
<path fill="none" stroke="black" d="M310.24,-79.96C310.24,-71.79 310.24,-61.38 310.24,-51.7"/>
<polygon fill="black" stroke="black" points="313.74,-51.98 310.24,-41.98 306.74,-51.98 313.74,-51.98"/>
</g>
<!-- 093a1c94&#45;4aae&#45;4cff&#45;8fcb&#45;06d18c6a9790 -->
<g id="node12" class="node">
<title>093a1c94&#45;4aae&#45;4cff&#45;8fcb&#45;06d18c6a9790</title>
<ellipse fill="#ffff80" stroke="black" cx="462.24" cy="-22.1" rx="72.3" ry="22.1"/>
<text text-anchor="middle" x="462.24" y="-14.72" font-family="Times New Roman,serif" font-size="20.00">Is(AC,Off)</text>
</g>
<!-- e74e83a6&#45;bc77&#45;4dc9&#45;aa78&#45;4f400bc9a730&#45;&gt;093a1c94&#45;4aae&#45;4cff&#45;8fcb&#45;06d18c6a9790 -->
<g id="edge11" class="edge">
<title>e74e83a6&#45;bc77&#45;4dc9&#45;aa78&#45;4f400bc9a730&#45;&gt;093a1c94&#45;4aae&#45;4cff&#45;8fcb&#45;06d18c6a9790</title>
<path fill="none" stroke="black" d="M628.83,-87.68C602.85,-77.61 554.36,-58.81 516.37,-44.08"/>
<polygon fill="black" stroke="black" points="517.96,-40.95 507.37,-40.59 515.43,-47.47 517.96,-40.95"/>
</g>
<!-- 0ec75c23&#45;457b&#45;4541&#45;99d8&#45;628102646eef -->
<g id="node13" class="node">
<title>0ec75c23&#45;457b&#45;4541&#45;99d8&#45;628102646eef</title>
<ellipse fill="#ffff80" stroke="black" cx="652.24" cy="-22.1" rx="99.88" ry="22.1"/>
<text text-anchor="middle" x="652.24" y="-14.72" font-family="Times New Roman,serif" font-size="20.00">Is(Floor,Clean)</text>
</g>
<!-- e74e83a6&#45;bc77&#45;4dc9&#45;aa78&#45;4f400bc9a730&#45;&gt;0ec75c23&#45;457b&#45;4541&#45;99d8&#45;628102646eef -->
<g id="edge12" class="edge">
<title>e74e83a6&#45;bc77&#45;4dc9&#45;aa78&#45;4f400bc9a730&#45;&gt;0ec75c23&#45;457b&#45;4541&#45;99d8&#45;628102646eef</title>
<path fill="none" stroke="black" d="M648.28,-79.96C648.77,-72.91 649.38,-64.18 649.97,-55.7"/>
<polygon fill="black" stroke="black" points="653.44,-56.2 650.65,-45.98 646.46,-55.71 653.44,-56.2"/>
</g>
<!-- 0a54b3fc&#45;0cce&#45;4cf4&#45;be75&#45;5f18647b52d4 -->
<g id="node14" class="node">
<title>0a54b3fc&#45;0cce&#45;4cf4&#45;be75&#45;5f18647b52d4</title>
<polygon fill="lightgreen" stroke="black" points="896.74,-40.1 769.74,-40.1 769.74,-4.1 896.74,-4.1 896.74,-40.1"/>
<text text-anchor="middle" x="833.24" y="-14.72" font-family="Times New Roman,serif" font-size="20.00">Turn(AC,On)</text>
</g>
<!-- e74e83a6&#45;bc77&#45;4dc9&#45;aa78&#45;4f400bc9a730&#45;&gt;0a54b3fc&#45;0cce&#45;4cf4&#45;be75&#45;5f18647b52d4 -->
<g id="edge13" class="edge">
<title>e74e83a6&#45;bc77&#45;4dc9&#45;aa78&#45;4f400bc9a730&#45;&gt;0a54b3fc&#45;0cce&#45;4cf4&#45;be75&#45;5f18647b52d4</title>
<path fill="none" stroke="black" d="M665.76,-87.68C691.62,-77.7 739.68,-59.17 777.71,-44.51"/>
<polygon fill="black" stroke="black" points="778.66,-47.9 786.73,-41.03 776.14,-41.36 778.66,-47.9"/>
</g>
<!-- 856fa507&#45;12df&#45;4ab7&#45;a7c0&#45;2c327abfebb1 -->
<g id="node16" class="node">
<title>856fa507&#45;12df&#45;4ab7&#45;a7c0&#45;2c327abfebb1</title>
<ellipse fill="#ffff80" stroke="black" cx="739.24" cy="-169.54" rx="71.24" ry="22.1"/>
<text text-anchor="middle" x="739.24" y="-162.17" font-family="Times New Roman,serif" font-size="20.00">Is(AC,On)</text>
</g>
<!-- bb7a8a0f&#45;cbd8&#45;4595&#45;be11&#45;ad28a431cdd7&#45;&gt;856fa507&#45;12df&#45;4ab7&#45;a7c0&#45;2c327abfebb1 -->
<g id="edge15" class="edge">
<title>bb7a8a0f&#45;cbd8&#45;4595&#45;be11&#45;ad28a431cdd7&#45;&gt;856fa507&#45;12df&#45;4ab7&#45;a7c0&#45;2c327abfebb1</title>
<path fill="none" stroke="black" d="M739.24,-227.4C739.24,-220.35 739.24,-211.63 739.24,-203.14"/>
<polygon fill="black" stroke="black" points="742.74,-203.43 739.24,-193.43 735.74,-203.43 742.74,-203.43"/>
</g>
<!-- 15f01872&#45;190c&#45;44eb&#45;8903&#45;ca38a7a51aeb -->
<g id="node17" class="node">
<title>15f01872&#45;190c&#45;44eb&#45;8903&#45;ca38a7a51aeb</title>
<polygon fill="lightgreen" stroke="black" points="1100.12,-187.54 828.37,-187.54 828.37,-151.54 1100.12,-151.54 1100.12,-187.54"/>
<text text-anchor="middle" x="964.24" y="-162.17" font-family="Times New Roman,serif" font-size="20.00">PutDown(Anything,Anywhere)</text>
</g>
<!-- bb7a8a0f&#45;cbd8&#45;4595&#45;be11&#45;ad28a431cdd7&#45;&gt;15f01872&#45;190c&#45;44eb&#45;8903&#45;ca38a7a51aeb -->
<g id="edge16" class="edge">
<title>bb7a8a0f&#45;cbd8&#45;4595&#45;be11&#45;ad28a431cdd7&#45;&gt;15f01872&#45;190c&#45;44eb&#45;8903&#45;ca38a7a51aeb</title>
<path fill="none" stroke="black" d="M757.65,-236.39C788.19,-226.66 850.75,-206.72 899.07,-191.32"/>
<polygon fill="black" stroke="black" points="899.86,-194.74 908.32,-188.37 897.73,-188.07 899.86,-194.74"/>
</g>
<!-- c480f850&#45;8188&#45;4c14&#45;9289&#45;9043f0c4f9cc -->
<g id="node19" class="node">
<title>c480f850&#45;8188&#45;4c14&#45;9289&#45;9043f0c4f9cc</title>
<ellipse fill="#ffff80" stroke="black" cx="1190.24" cy="-169.54" rx="72.3" ry="22.1"/>
<text text-anchor="middle" x="1190.24" y="-162.17" font-family="Times New Roman,serif" font-size="20.00">Is(AC,Off)</text>
</g>
<!-- 521017a2&#45;5249&#45;4dcf&#45;a960&#45;09032a615bf4&#45;&gt;c480f850&#45;8188&#45;4c14&#45;9289&#45;9043f0c4f9cc -->
<g id="edge18" class="edge">
<title>521017a2&#45;5249&#45;4dcf&#45;a960&#45;09032a615bf4&#45;&gt;c480f850&#45;8188&#45;4c14&#45;9289&#45;9043f0c4f9cc</title>
<path fill="none" stroke="black" d="M1190.24,-227.4C1190.24,-220.35 1190.24,-211.63 1190.24,-203.14"/>
<polygon fill="black" stroke="black" points="1193.74,-203.43 1190.24,-193.43 1186.74,-203.43 1193.74,-203.43"/>
</g>
<!-- 12dd8c3d&#45;d161&#45;4ae6&#45;9592&#45;b8782884939e -->
<g id="node20" class="node">
<title>12dd8c3d&#45;d161&#45;4ae6&#45;9592&#45;b8782884939e</title>
<polygon fill="#b0ffff" stroke="black" points="1305.74,-185.17 1280.74,-185.17 1280.74,-153.92 1305.74,-153.92 1305.74,-185.17"/>
<text text-anchor="middle" x="1293.24" y="-162.17" font-family="Times New Roman,serif" font-size="20.00">?</text>
</g>
<!-- 521017a2&#45;5249&#45;4dcf&#45;a960&#45;09032a615bf4&#45;&gt;12dd8c3d&#45;d161&#45;4ae6&#45;9592&#45;b8782884939e -->
<g id="edge19" class="edge">
<title>521017a2&#45;5249&#45;4dcf&#45;a960&#45;09032a615bf4&#45;&gt;12dd8c3d&#45;d161&#45;4ae6&#45;9592&#45;b8782884939e</title>
<path fill="none" stroke="black" d="M1208.65,-232.21C1225.54,-222.66 1250.96,-207.43 1271.24,-191.64 1271.54,-191.41 1271.84,-191.17 1272.13,-190.93"/>
<polygon fill="black" stroke="black" points="1274.26,-193.72 1279.48,-184.5 1269.65,-188.46 1274.26,-193.72"/>
</g>
<!-- 6c30bf44&#45;028c&#45;4dab&#45;8e38&#45;ff859419cfcf -->
<g id="node21" class="node">
<title>6c30bf44&#45;028c&#45;4dab&#45;8e38&#45;ff859419cfcf</title>
<polygon fill="#ff8080" stroke="black" points="1306.37,-111.44 1270.12,-111.44 1270.12,-80.19 1306.37,-80.19 1306.37,-111.44"/>
<text text-anchor="middle" x="1288.24" y="-88.44" font-family="Times New Roman,serif" font-size="20.00">→</text>
</g>
<!-- 12dd8c3d&#45;d161&#45;4ae6&#45;9592&#45;b8782884939e&#45;&gt;6c30bf44&#45;028c&#45;4dab&#45;8e38&#45;ff859419cfcf -->
<g id="edge20" class="edge">
<title>12dd8c3d&#45;d161&#45;4ae6&#45;9592&#45;b8782884939e&#45;&gt;6c30bf44&#45;028c&#45;4dab&#45;8e38&#45;ff859419cfcf</title>
<path fill="none" stroke="black" d="M1292.21,-153.68C1291.59,-144.83 1290.79,-133.35 1290.07,-123.03"/>
<polygon fill="black" stroke="black" points="1293.57,-122.9 1289.38,-113.17 1286.58,-123.39 1293.57,-122.9"/>
</g>
<!-- 69417d3a&#45;d3da&#45;4767&#45;9eea&#45;4b9c64bd24b4 -->
<g id="node24" class="node">
<title>69417d3a&#45;d3da&#45;4767&#45;9eea&#45;4b9c64bd24b4</title>
<polygon fill="#ff8080" stroke="black" points="1574.37,-111.44 1538.12,-111.44 1538.12,-80.19 1574.37,-80.19 1574.37,-111.44"/>
<text text-anchor="middle" x="1556.24" y="-88.44" font-family="Times New Roman,serif" font-size="20.00">→</text>
</g>
<!-- 12dd8c3d&#45;d161&#45;4ae6&#45;9592&#45;b8782884939e&#45;&gt;69417d3a&#45;d3da&#45;4767&#45;9eea&#45;4b9c64bd24b4 -->
<g id="edge23" class="edge">
<title>12dd8c3d&#45;d161&#45;4ae6&#45;9592&#45;b8782884939e&#45;&gt;69417d3a&#45;d3da&#45;4767&#45;9eea&#45;4b9c64bd24b4</title>
<path fill="none" stroke="black" d="M1305.93,-165.08C1345.86,-154.19 1469.72,-120.42 1526.84,-104.84"/>
<polygon fill="black" stroke="black" points="1527.46,-108.3 1536.18,-102.29 1525.61,-101.54 1527.46,-108.3"/>
</g>
<!-- f7c780d5&#45;aec3&#45;4a6e&#45;a11d&#45;3f3f4fd651f3 -->
<g id="node22" class="node">
<title>f7c780d5&#45;aec3&#45;4a6e&#45;a11d&#45;3f3f4fd651f3</title>
<ellipse fill="#ffff80" stroke="black" cx="1034.24" cy="-22.1" rx="99.88" ry="22.1"/>
<text text-anchor="middle" x="1034.24" y="-14.72" font-family="Times New Roman,serif" font-size="20.00">Is(Floor,Clean)</text>
</g>
<!-- 6c30bf44&#45;028c&#45;4dab&#45;8e38&#45;ff859419cfcf&#45;&gt;f7c780d5&#45;aec3&#45;4a6e&#45;a11d&#45;3f3f4fd651f3 -->
<g id="edge21" class="edge">
<title>6c30bf44&#45;028c&#45;4dab&#45;8e38&#45;ff859419cfcf&#45;&gt;f7c780d5&#45;aec3&#45;4a6e&#45;a11d&#45;3f3f4fd651f3</title>
<path fill="none" stroke="black" d="M1269.97,-89.66C1236.06,-80.09 1161.72,-59.09 1105.53,-43.23"/>
<polygon fill="black" stroke="black" points="1106.58,-39.89 1096,-40.54 1104.68,-46.62 1106.58,-39.89"/>
</g>
<!-- 891f47a3&#45;c914&#45;4b53&#45;b30e&#45;36a0fb51f15a -->
<g id="node23" class="node">
<title>891f47a3&#45;c914&#45;4b53&#45;b30e&#45;36a0fb51f15a</title>
<polygon fill="lightgreen" stroke="black" points="1424.12,-40.1 1152.37,-40.1 1152.37,-4.1 1424.12,-4.1 1424.12,-40.1"/>
<text text-anchor="middle" x="1288.24" y="-14.72" font-family="Times New Roman,serif" font-size="20.00">PutDown(Anything,Anywhere)</text>
</g>
<!-- 6c30bf44&#45;028c&#45;4dab&#45;8e38&#45;ff859419cfcf&#45;&gt;891f47a3&#45;c914&#45;4b53&#45;b30e&#45;36a0fb51f15a -->
<g id="edge22" class="edge">
<title>6c30bf44&#45;028c&#45;4dab&#45;8e38&#45;ff859419cfcf&#45;&gt;891f47a3&#45;c914&#45;4b53&#45;b30e&#45;36a0fb51f15a</title>
<path fill="none" stroke="black" d="M1288.24,-79.96C1288.24,-71.79 1288.24,-61.38 1288.24,-51.7"/>
<polygon fill="black" stroke="black" points="1291.74,-51.98 1288.24,-41.98 1284.74,-51.98 1291.74,-51.98"/>
</g>
<!-- 69afa45a&#45;6e57&#45;4c11&#45;89bd&#45;b437d400dee4 -->
<g id="node25" class="node">
<title>69afa45a&#45;6e57&#45;4c11&#45;89bd&#45;b437d400dee4</title>
<ellipse fill="#ffff80" stroke="black" cx="1556.24" cy="-22.1" rx="114.2" ry="22.1"/>
<text text-anchor="middle" x="1556.24" y="-14.72" font-family="Times New Roman,serif" font-size="20.00">Holding(Nothing)</text>
</g>
<!-- 69417d3a&#45;d3da&#45;4767&#45;9eea&#45;4b9c64bd24b4&#45;&gt;69afa45a&#45;6e57&#45;4c11&#45;89bd&#45;b437d400dee4 -->
<g id="edge24" class="edge">
<title>69417d3a&#45;d3da&#45;4767&#45;9eea&#45;4b9c64bd24b4&#45;&gt;69afa45a&#45;6e57&#45;4c11&#45;89bd&#45;b437d400dee4</title>
<path fill="none" stroke="black" d="M1556.24,-79.96C1556.24,-72.91 1556.24,-64.18 1556.24,-55.7"/>
<polygon fill="black" stroke="black" points="1559.74,-55.98 1556.24,-45.98 1552.74,-55.98 1559.74,-55.98"/>
</g>
<!-- bae4444e&#45;5746&#45;403d&#45;be66&#45;17b721dd5a3f -->
<g id="node26" class="node">
<title>bae4444e&#45;5746&#45;403d&#45;be66&#45;17b721dd5a3f</title>
<polygon fill="lightgreen" stroke="black" points="1815.74,-40.1 1688.74,-40.1 1688.74,-4.1 1815.74,-4.1 1815.74,-40.1"/>
<text text-anchor="middle" x="1752.24" y="-14.72" font-family="Times New Roman,serif" font-size="20.00">Turn(AC,On)</text>
</g>
<!-- 69417d3a&#45;d3da&#45;4767&#45;9eea&#45;4b9c64bd24b4&#45;&gt;bae4444e&#45;5746&#45;403d&#45;be66&#45;17b721dd5a3f -->
<g id="edge25" class="edge">
<title>69417d3a&#45;d3da&#45;4767&#45;9eea&#45;4b9c64bd24b4&#45;&gt;bae4444e&#45;5746&#45;403d&#45;be66&#45;17b721dd5a3f</title>
<path fill="none" stroke="black" d="M1574.68,-88.07C1601.71,-78.18 1653.29,-59.31 1693.92,-44.44"/>
<polygon fill="black" stroke="black" points="1694.91,-47.8 1703.1,-41.08 1692.51,-41.23 1694.91,-47.8"/>
</g>
</g>
</svg>
