<?xml version="1.0" encoding="UTF-8" standalone="no"?>
<!DOCTYPE svg PUBLIC "-//W3C//DTD SVG 1.1//EN"
 "http://www.w3.org/Graphics/SVG/1.1/DTD/svg11.dtd">
<!-- Generated by graphviz version 9.0.0 (20230911.1827)
 -->
<!-- Title: pastafarianism Pages: 1 -->
<svg width="1793pt" height="417pt"
 viewBox="0.00 0.00 1792.95 416.87" xmlns="http://www.w3.org/2000/svg" xmlns:xlink="http://www.w3.org/1999/xlink">
<g id="graph0" class="graph" transform="scale(1 1) rotate(0) translate(4 412.87)">
<title>pastafarianism</title>
<polygon fill="white" stroke="none" points="-4,4 -4,-412.87 1788.95,-412.87 1788.95,4 -4,4"/>
<!-- 49894dc9&#45;ad34&#45;40a6&#45;be03&#45;63748a930786 -->
<g id="node1" class="node">
<title>49894dc9&#45;ad34&#45;40a6&#45;be03&#45;63748a930786</title>
<polygon fill="cyan" stroke="black" points="835.32,-408.87 751.82,-377.62 835.32,-346.37 918.82,-377.62 835.32,-408.87"/>
<text text-anchor="middle" x="835.32" y="-370.24" font-family="Times New Roman,serif" font-size="20.00">Selector</text>
</g>
<!-- a1647f60&#45;7fea&#45;4a25&#45;8625&#45;6a4d947202ef -->
<g id="node2" class="node">
<title>a1647f60&#45;7fea&#45;4a25&#45;8625&#45;6a4d947202ef</title>
<ellipse fill="yellow" stroke="black" cx="399.32" cy="-286.45" rx="156.62" ry="22.1"/>
<text text-anchor="middle" x="399.32" y="-279.07" font-family="Times New Roman,serif" font-size="20.00">On(Coffee,BrightTable6)</text>
</g>
<!-- 49894dc9&#45;ad34&#45;40a6&#45;be03&#45;63748a930786&#45;&gt;a1647f60&#45;7fea&#45;4a25&#45;8625&#45;6a4d947202ef -->
<g id="edge1" class="edge">
<title>49894dc9&#45;ad34&#45;40a6&#45;be03&#45;63748a930786&#45;&gt;a1647f60&#45;7fea&#45;4a25&#45;8625&#45;6a4d947202ef</title>
<path fill="none" stroke="black" d="M782.29,-365.77C711.67,-351.33 585.42,-325.51 497.25,-307.48"/>
<polygon fill="black" stroke="black" points="498.14,-304.08 487.64,-305.51 496.74,-310.94 498.14,-304.08"/>
</g>
<!-- 9ee57ce2&#45;80bd&#45;4973&#45;b7f2&#45;acab2ca70a15 -->
<g id="node3" class="node">
<title>9ee57ce2&#45;80bd&#45;4973&#45;b7f2&#45;acab2ca70a15</title>
<polygon fill="orange" stroke="black" points="718.84,-276.54 718.84,-296.35 676.36,-310.37 616.28,-310.37 573.8,-296.35 573.8,-276.54 616.28,-262.53 676.36,-262.53 718.84,-276.54"/>
<text text-anchor="middle" x="646.32" y="-279.07" font-family="Times New Roman,serif" font-size="20.00">Sequence</text>
</g>
<!-- 49894dc9&#45;ad34&#45;40a6&#45;be03&#45;63748a930786&#45;&gt;9ee57ce2&#45;80bd&#45;4973&#45;b7f2&#45;acab2ca70a15 -->
<g id="edge2" class="edge">
<title>49894dc9&#45;ad34&#45;40a6&#45;be03&#45;63748a930786&#45;&gt;9ee57ce2&#45;80bd&#45;4973&#45;b7f2&#45;acab2ca70a15</title>
<path fill="none" stroke="black" d="M799.33,-359.63C770.62,-346.09 730.05,-326.95 697.89,-311.78"/>
<polygon fill="black" stroke="black" points="699.68,-308.75 689.14,-307.65 696.69,-315.08 699.68,-308.75"/>
</g>
<!-- 8ae6498a&#45;bfe4&#45;4fac&#45;89c4&#45;84b9ee882900 -->
<g id="node10" class="node">
<title>8ae6498a&#45;bfe4&#45;4fac&#45;89c4&#45;84b9ee882900</title>
<polygon fill="orange" stroke="black" points="907.84,-276.54 907.84,-296.35 865.36,-310.37 805.28,-310.37 762.8,-296.35 762.8,-276.54 805.28,-262.53 865.36,-262.53 907.84,-276.54"/>
<text text-anchor="middle" x="835.32" y="-279.07" font-family="Times New Roman,serif" font-size="20.00">Sequence</text>
</g>
<!-- 49894dc9&#45;ad34&#45;40a6&#45;be03&#45;63748a930786&#45;&gt;8ae6498a&#45;bfe4&#45;4fac&#45;89c4&#45;84b9ee882900 -->
<g id="edge9" class="edge">
<title>49894dc9&#45;ad34&#45;40a6&#45;be03&#45;63748a930786&#45;&gt;8ae6498a&#45;bfe4&#45;4fac&#45;89c4&#45;84b9ee882900</title>
<path fill="none" stroke="black" d="M835.32,-345.93C835.32,-338.3 835.32,-330.07 835.32,-322.26"/>
<polygon fill="black" stroke="black" points="838.82,-322.38 835.32,-312.38 831.82,-322.38 838.82,-322.38"/>
</g>
<!-- 7aeae3e6&#45;ba38&#45;4e43&#45;866f&#45;da481d666d68 -->
<g id="node17" class="node">
<title>7aeae3e6&#45;ba38&#45;4e43&#45;866f&#45;da481d666d68</title>
<polygon fill="orange" stroke="black" points="1205.84,-276.54 1205.84,-296.35 1163.36,-310.37 1103.28,-310.37 1060.8,-296.35 1060.8,-276.54 1103.28,-262.53 1163.36,-262.53 1205.84,-276.54"/>
<text text-anchor="middle" x="1133.32" y="-279.07" font-family="Times New Roman,serif" font-size="20.00">Sequence</text>
</g>
<!-- 49894dc9&#45;ad34&#45;40a6&#45;be03&#45;63748a930786&#45;&gt;7aeae3e6&#45;ba38&#45;4e43&#45;866f&#45;da481d666d68 -->
<g id="edge16" class="edge">
<title>49894dc9&#45;ad34&#45;40a6&#45;be03&#45;63748a930786&#45;&gt;7aeae3e6&#45;ba38&#45;4e43&#45;866f&#45;da481d666d68</title>
<path fill="none" stroke="black" d="M880.91,-362.98C931.27,-347.9 1012.74,-323.53 1069.45,-306.56"/>
<polygon fill="black" stroke="black" points="1070.42,-309.92 1079,-303.7 1068.42,-303.21 1070.42,-309.92"/>
</g>
<!-- 1e806781&#45;835a&#45;44fb&#45;9e4f&#45;033193ecded4 -->
<g id="node20" class="node">
<title>1e806781&#45;835a&#45;44fb&#45;9e4f&#45;033193ecded4</title>
<polygon fill="orange" stroke="black" points="1595.84,-276.54 1595.84,-296.35 1553.36,-310.37 1493.28,-310.37 1450.8,-296.35 1450.8,-276.54 1493.28,-262.53 1553.36,-262.53 1595.84,-276.54"/>
<text text-anchor="middle" x="1523.32" y="-279.07" font-family="Times New Roman,serif" font-size="20.00">Sequence</text>
</g>
<!-- 49894dc9&#45;ad34&#45;40a6&#45;be03&#45;63748a930786&#45;&gt;1e806781&#45;835a&#45;44fb&#45;9e4f&#45;033193ecded4 -->
<g id="edge19" class="edge">
<title>49894dc9&#45;ad34&#45;40a6&#45;be03&#45;63748a930786&#45;&gt;1e806781&#45;835a&#45;44fb&#45;9e4f&#45;033193ecded4</title>
<path fill="none" stroke="black" d="M896.38,-368.7C1019.89,-352.69 1299.56,-316.45 1439.82,-298.27"/>
<polygon fill="black" stroke="black" points="1439.93,-301.78 1449.4,-297.03 1439.03,-294.84 1439.93,-301.78"/>
</g>
<!-- e9c3167f&#45;1bf2&#45;4a5e&#45;a3a7&#45;7be2d0c699a5 -->
<g id="node4" class="node">
<title>e9c3167f&#45;1bf2&#45;4a5e&#45;a3a7&#45;7be2d0c699a5</title>
<ellipse fill="yellow" stroke="black" cx="306.32" cy="-195.28" rx="105.71" ry="22.1"/>
<text text-anchor="middle" x="306.32" y="-187.9" font-family="Times New Roman,serif" font-size="20.00">Holding(Coffee)</text>
</g>
<!-- 9ee57ce2&#45;80bd&#45;4973&#45;b7f2&#45;acab2ca70a15&#45;&gt;e9c3167f&#45;1bf2&#45;4a5e&#45;a3a7&#45;7be2d0c699a5 -->
<g id="edge3" class="edge">
<title>9ee57ce2&#45;80bd&#45;4973&#45;b7f2&#45;acab2ca70a15&#45;&gt;e9c3167f&#45;1bf2&#45;4a5e&#45;a3a7&#45;7be2d0c699a5</title>
<path fill="none" stroke="black" d="M592.36,-269.92C583.35,-267.4 574.08,-264.85 565.32,-262.53 501.14,-245.49 484.64,-243.05 420.32,-226.53 407.54,-223.25 393.97,-219.7 380.81,-216.23"/>
<polygon fill="black" stroke="black" points="381.91,-212.9 371.35,-213.73 380.12,-219.67 381.91,-212.9"/>
</g>
<!-- 0c4aa5b5&#45;d36f&#45;4470&#45;a445&#45;672510246a8a -->
<g id="node5" class="node">
<title>0c4aa5b5&#45;d36f&#45;4470&#45;a445&#45;672510246a8a</title>
<polygon fill="cyan" stroke="black" points="513.32,-226.53 429.82,-195.28 513.32,-164.03 596.82,-195.28 513.32,-226.53"/>
<text text-anchor="middle" x="513.32" y="-187.9" font-family="Times New Roman,serif" font-size="20.00">Selector</text>
</g>
<!-- 9ee57ce2&#45;80bd&#45;4973&#45;b7f2&#45;acab2ca70a15&#45;&gt;0c4aa5b5&#45;d36f&#45;4470&#45;a445&#45;672510246a8a -->
<g id="edge4" class="edge">
<title>9ee57ce2&#45;80bd&#45;4973&#45;b7f2&#45;acab2ca70a15&#45;&gt;0c4aa5b5&#45;d36f&#45;4470&#45;a445&#45;672510246a8a</title>
<path fill="none" stroke="black" d="M613.1,-263.18C594.54,-250.73 571.32,-235.16 551.95,-222.18"/>
<polygon fill="black" stroke="black" points="554.01,-219.35 543.76,-216.69 550.12,-225.16 554.01,-219.35"/>
</g>
<!-- 03c503da&#45;ed48&#45;4522&#45;bf76&#45;bf79d5d40363 -->
<g id="node6" class="node">
<title>03c503da&#45;ed48&#45;4522&#45;bf76&#45;bf79d5d40363</title>
<polygon fill="orange" stroke="black" points="488.84,-94.2 488.84,-114.02 446.36,-128.03 386.28,-128.03 343.8,-114.02 343.8,-94.2 386.28,-80.19 446.36,-80.19 488.84,-94.2"/>
<text text-anchor="middle" x="416.32" y="-96.74" font-family="Times New Roman,serif" font-size="20.00">Sequence</text>
</g>
<!-- 0c4aa5b5&#45;d36f&#45;4470&#45;a445&#45;672510246a8a&#45;&gt;03c503da&#45;ed48&#45;4522&#45;bf76&#45;bf79d5d40363 -->
<g id="edge5" class="edge">
<title>0c4aa5b5&#45;d36f&#45;4470&#45;a445&#45;672510246a8a&#45;&gt;03c503da&#45;ed48&#45;4522&#45;bf76&#45;bf79d5d40363</title>
<path fill="none" stroke="black" d="M489.84,-172.69C477.88,-161.7 463.13,-148.14 449.98,-136.06"/>
<polygon fill="black" stroke="black" points="452.47,-133.59 442.74,-129.4 447.73,-138.74 452.47,-133.59"/>
</g>
<!-- fbcd983e&#45;39da&#45;4406&#45;8d3d&#45;d20a10f41c2c -->
<g id="node9" class="node">
<title>fbcd983e&#45;39da&#45;4406&#45;8d3d&#45;d20a10f41c2c</title>
<polygon fill="lawngreen" stroke="black" points="713.57,-122.11 507.07,-122.11 507.07,-86.11 713.57,-86.11 713.57,-122.11"/>
<text text-anchor="middle" x="610.32" y="-96.74" font-family="Times New Roman,serif" font-size="20.00">MoveTo(BrightTable6)</text>
</g>
<!-- 0c4aa5b5&#45;d36f&#45;4470&#45;a445&#45;672510246a8a&#45;&gt;fbcd983e&#45;39da&#45;4406&#45;8d3d&#45;d20a10f41c2c -->
<g id="edge8" class="edge">
<title>0c4aa5b5&#45;d36f&#45;4470&#45;a445&#45;672510246a8a&#45;&gt;fbcd983e&#45;39da&#45;4406&#45;8d3d&#45;d20a10f41c2c</title>
<path fill="none" stroke="black" d="M536.8,-172.69C550.86,-159.77 568.79,-143.29 583.42,-129.84"/>
<polygon fill="black" stroke="black" points="585.49,-132.69 590.48,-123.35 580.75,-127.54 585.49,-132.69"/>
</g>
<!-- 2de3d502&#45;6231&#45;49a0&#45;8f44&#45;8d90ec686417 -->
<g id="node7" class="node">
<title>2de3d502&#45;6231&#45;49a0&#45;8f44&#45;8d90ec686417</title>
<ellipse fill="yellow" stroke="black" cx="151.32" cy="-22.1" rx="151.32" ry="22.1"/>
<text text-anchor="middle" x="151.32" y="-14.72" font-family="Times New Roman,serif" font-size="20.00">At(Robot,BrightTable6)</text>
</g>
<!-- 03c503da&#45;ed48&#45;4522&#45;bf76&#45;bf79d5d40363&#45;&gt;2de3d502&#45;6231&#45;49a0&#45;8f44&#45;8d90ec686417 -->
<g id="edge6" class="edge">
<title>03c503da&#45;ed48&#45;4522&#45;bf76&#45;bf79d5d40363&#45;&gt;2de3d502&#45;6231&#45;49a0&#45;8f44&#45;8d90ec686417</title>
<path fill="none" stroke="black" d="M363.65,-87.21C324.41,-75.36 270.28,-59.01 226.49,-45.79"/>
<polygon fill="black" stroke="black" points="227.63,-42.48 217.05,-42.94 225.61,-49.18 227.63,-42.48"/>
</g>
<!-- 5a068be8&#45;bc71&#45;4b01&#45;80b0&#45;609772d01bad -->
<g id="node8" class="node">
<title>5a068be8&#45;bc71&#45;4b01&#45;80b0&#45;609772d01bad</title>
<polygon fill="lawngreen" stroke="black" points="594.32,-40.1 320.32,-40.1 320.32,-4.1 594.32,-4.1 594.32,-40.1"/>
<text text-anchor="middle" x="457.32" y="-14.72" font-family="Times New Roman,serif" font-size="20.00">PutDown(Coffee,BrightTable6)</text>
</g>
<!-- 03c503da&#45;ed48&#45;4522&#45;bf76&#45;bf79d5d40363&#45;&gt;5a068be8&#45;bc71&#45;4b01&#45;80b0&#45;609772d01bad -->
<g id="edge7" class="edge">
<title>03c503da&#45;ed48&#45;4522&#45;bf76&#45;bf79d5d40363&#45;&gt;5a068be8&#45;bc71&#45;4b01&#45;80b0&#45;609772d01bad</title>
<path fill="none" stroke="black" d="M428.18,-79.97C432.85,-70.85 438.26,-60.29 443.14,-50.77"/>
<polygon fill="black" stroke="black" points="446.22,-52.44 447.66,-41.94 439.99,-49.25 446.22,-52.44"/>
</g>
<!-- 77122133&#45;d3c3&#45;42e6&#45;abf2&#45;75eebbd4117c -->
<g id="node11" class="node">
<title>77122133&#45;d3c3&#45;42e6&#45;abf2&#45;75eebbd4117c</title>
<ellipse fill="yellow" stroke="black" cx="728.32" cy="-195.28" rx="113.14" ry="22.1"/>
<text text-anchor="middle" x="728.32" y="-187.9" font-family="Times New Roman,serif" font-size="20.00">At(Robot,Coffee)</text>
</g>
<!-- 8ae6498a&#45;bfe4&#45;4fac&#45;89c4&#45;84b9ee882900&#45;&gt;77122133&#45;d3c3&#45;42e6&#45;abf2&#45;75eebbd4117c -->
<g id="edge10" class="edge">
<title>8ae6498a&#45;bfe4&#45;4fac&#45;89c4&#45;84b9ee882900&#45;&gt;77122133&#45;d3c3&#45;42e6&#45;abf2&#45;75eebbd4117c</title>
<path fill="none" stroke="black" d="M807.49,-262.25C793.64,-250.71 776.79,-236.67 762.2,-224.51"/>
<polygon fill="black" stroke="black" points="764.54,-221.91 754.62,-218.19 760.06,-227.28 764.54,-221.91"/>
</g>
<!-- 8892efc8&#45;2c86&#45;4e73&#45;80ae&#45;4835b3bd15c4 -->
<g id="node12" class="node">
<title>8892efc8&#45;2c86&#45;4e73&#45;80ae&#45;4835b3bd15c4</title>
<polygon fill="cyan" stroke="black" points="943.32,-226.53 859.82,-195.28 943.32,-164.03 1026.82,-195.28 943.32,-226.53"/>
<text text-anchor="middle" x="943.32" y="-187.9" font-family="Times New Roman,serif" font-size="20.00">Selector</text>
</g>
<!-- 8ae6498a&#45;bfe4&#45;4fac&#45;89c4&#45;84b9ee882900&#45;&gt;8892efc8&#45;2c86&#45;4e73&#45;80ae&#45;4835b3bd15c4 -->
<g id="edge11" class="edge">
<title>8ae6498a&#45;bfe4&#45;4fac&#45;89c4&#45;84b9ee882900&#45;&gt;8892efc8&#45;2c86&#45;4e73&#45;80ae&#45;4835b3bd15c4</title>
<path fill="none" stroke="black" d="M863.41,-262.25C877.39,-250.71 894.4,-236.67 909.12,-224.51"/>
<polygon fill="black" stroke="black" points="911.3,-227.25 916.78,-218.19 906.84,-221.86 911.3,-227.25"/>
</g>
<!-- 3d40ab19&#45;2ae1&#45;40f7&#45;99d3&#45;3b4635f4d3bb -->
<g id="node13" class="node">
<title>3d40ab19&#45;2ae1&#45;40f7&#45;99d3&#45;3b4635f4d3bb</title>
<polygon fill="orange" stroke="black" points="897.84,-94.2 897.84,-114.02 855.36,-128.03 795.28,-128.03 752.8,-114.02 752.8,-94.2 795.28,-80.19 855.36,-80.19 897.84,-94.2"/>
<text text-anchor="middle" x="825.32" y="-96.74" font-family="Times New Roman,serif" font-size="20.00">Sequence</text>
</g>
<!-- 8892efc8&#45;2c86&#45;4e73&#45;80ae&#45;4835b3bd15c4&#45;&gt;3d40ab19&#45;2ae1&#45;40f7&#45;99d3&#45;3b4635f4d3bb -->
<g id="edge12" class="edge">
<title>8892efc8&#45;2c86&#45;4e73&#45;80ae&#45;4835b3bd15c4&#45;&gt;3d40ab19&#45;2ae1&#45;40f7&#45;99d3&#45;3b4635f4d3bb</title>
<path fill="none" stroke="black" d="M916.25,-173.82C901.09,-162.37 881.91,-147.88 865.08,-135.16"/>
<polygon fill="black" stroke="black" points="867.31,-132.45 857.22,-129.22 863.09,-138.04 867.31,-132.45"/>
</g>
<!-- 359bf54c&#45;5bca&#45;4286&#45;affe&#45;29fdaf2d5d02 -->
<g id="node16" class="node">
<title>359bf54c&#45;5bca&#45;4286&#45;affe&#45;29fdaf2d5d02</title>
<polygon fill="lawngreen" stroke="black" points="1187.2,-122.11 915.45,-122.11 915.45,-86.11 1187.2,-86.11 1187.2,-122.11"/>
<text text-anchor="middle" x="1051.32" y="-96.74" font-family="Times New Roman,serif" font-size="20.00">PutDown(Anything,Anywhere)</text>
</g>
<!-- 8892efc8&#45;2c86&#45;4e73&#45;80ae&#45;4835b3bd15c4&#45;&gt;359bf54c&#45;5bca&#45;4286&#45;affe&#45;29fdaf2d5d02 -->
<g id="edge15" class="edge">
<title>8892efc8&#45;2c86&#45;4e73&#45;80ae&#45;4835b3bd15c4&#45;&gt;359bf54c&#45;5bca&#45;4286&#45;affe&#45;29fdaf2d5d02</title>
<path fill="none" stroke="black" d="M968.92,-173.15C984.7,-160.11 1005.02,-143.34 1021.53,-129.71"/>
<polygon fill="black" stroke="black" points="1023.61,-132.53 1029.09,-123.46 1019.15,-127.13 1023.61,-132.53"/>
</g>
<!-- ab70101f&#45;b447&#45;4508&#45;9cbc&#45;6d08dff1b865 -->
<g id="node14" class="node">
<title>ab70101f&#45;b447&#45;4508&#45;9cbc&#45;6d08dff1b865</title>
<ellipse fill="yellow" stroke="black" cx="785.32" cy="-22.1" rx="114.2" ry="22.1"/>
<text text-anchor="middle" x="785.32" y="-14.72" font-family="Times New Roman,serif" font-size="20.00">Holding(Nothing)</text>
</g>
<!-- 3d40ab19&#45;2ae1&#45;40f7&#45;99d3&#45;3b4635f4d3bb&#45;&gt;ab70101f&#45;b447&#45;4508&#45;9cbc&#45;6d08dff1b865 -->
<g id="edge13" class="edge">
<title>3d40ab19&#45;2ae1&#45;40f7&#45;99d3&#45;3b4635f4d3bb&#45;&gt;ab70101f&#45;b447&#45;4508&#45;9cbc&#45;6d08dff1b865</title>
<path fill="none" stroke="black" d="M813.75,-79.97C809.83,-72.11 805.37,-63.2 801.17,-54.8"/>
<polygon fill="black" stroke="black" points="804.32,-53.28 796.72,-45.9 798.06,-56.41 804.32,-53.28"/>
</g>
<!-- 35fd1c53&#45;807e&#45;442b&#45;9167&#45;f75ab12215e8 -->
<g id="node15" class="node">
<title>35fd1c53&#45;807e&#45;442b&#45;9167&#45;f75ab12215e8</title>
<polygon fill="lawngreen" stroke="black" points="1061.07,-40.1 917.57,-40.1 917.57,-4.1 1061.07,-4.1 1061.07,-40.1"/>
<text text-anchor="middle" x="989.32" y="-14.72" font-family="Times New Roman,serif" font-size="20.00">PickUp(Coffee)</text>
</g>
<!-- 3d40ab19&#45;2ae1&#45;40f7&#45;99d3&#45;3b4635f4d3bb&#45;&gt;35fd1c53&#45;807e&#45;442b&#45;9167&#45;f75ab12215e8 -->
<g id="edge14" class="edge">
<title>3d40ab19&#45;2ae1&#45;40f7&#45;99d3&#45;3b4635f4d3bb&#45;&gt;35fd1c53&#45;807e&#45;442b&#45;9167&#45;f75ab12215e8</title>
<path fill="none" stroke="black" d="M865.86,-83.33C889.43,-71.83 919.21,-57.31 943.61,-45.4"/>
<polygon fill="black" stroke="black" points="944.89,-48.67 952.34,-41.14 941.82,-42.38 944.89,-48.67"/>
</g>
<!-- 36b3fb04&#45;d2cc&#45;4ad7&#45;ac4f&#45;e07c99dda7ac -->
<g id="node18" class="node">
<title>36b3fb04&#45;d2cc&#45;4ad7&#45;ac4f&#45;e07c99dda7ac</title>
<ellipse fill="yellow" stroke="black" cx="1133.32" cy="-195.28" rx="88.21" ry="22.1"/>
<text text-anchor="middle" x="1133.32" y="-187.9" font-family="Times New Roman,serif" font-size="20.00">Exist(Coffee)</text>
</g>
<!-- 7aeae3e6&#45;ba38&#45;4e43&#45;866f&#45;da481d666d68&#45;&gt;36b3fb04&#45;d2cc&#45;4ad7&#45;ac4f&#45;e07c99dda7ac -->
<g id="edge17" class="edge">
<title>7aeae3e6&#45;ba38&#45;4e43&#45;866f&#45;da481d666d68&#45;&gt;36b3fb04&#45;d2cc&#45;4ad7&#45;ac4f&#45;e07c99dda7ac</title>
<path fill="none" stroke="black" d="M1133.32,-262.48C1133.32,-252.33 1133.32,-240.2 1133.32,-229.11"/>
<polygon fill="black" stroke="black" points="1136.82,-229.15 1133.32,-219.15 1129.82,-229.15 1136.82,-229.15"/>
</g>
<!-- 6bfbfd2b&#45;8adb&#45;4739&#45;860e&#45;ad6484b97541 -->
<g id="node19" class="node">
<title>6bfbfd2b&#45;8adb&#45;4739&#45;860e&#45;ad6484b97541</title>
<polygon fill="lawngreen" stroke="black" points="1391.57,-213.28 1239.07,-213.28 1239.07,-177.28 1391.57,-177.28 1391.57,-213.28"/>
<text text-anchor="middle" x="1315.32" y="-187.9" font-family="Times New Roman,serif" font-size="20.00">MoveTo(Coffee)</text>
</g>
<!-- 7aeae3e6&#45;ba38&#45;4e43&#45;866f&#45;da481d666d68&#45;&gt;6bfbfd2b&#45;8adb&#45;4739&#45;860e&#45;ad6484b97541 -->
<g id="edge18" class="edge">
<title>7aeae3e6&#45;ba38&#45;4e43&#45;866f&#45;da481d666d68&#45;&gt;6bfbfd2b&#45;8adb&#45;4739&#45;860e&#45;ad6484b97541</title>
<path fill="none" stroke="black" d="M1173.71,-265.66C1202.1,-251.75 1240.11,-233.13 1269.61,-218.67"/>
<polygon fill="black" stroke="black" points="1270.86,-221.96 1278.3,-214.42 1267.78,-215.67 1270.86,-221.96"/>
</g>
<!-- 1cbe0216&#45;4e8d&#45;451f&#45;82f8&#45;491693fae7a1 -->
<g id="node21" class="node">
<title>1cbe0216&#45;4e8d&#45;451f&#45;82f8&#45;491693fae7a1</title>
<ellipse fill="yellow" stroke="black" cx="1523.32" cy="-195.28" rx="114.2" ry="22.1"/>
<text text-anchor="middle" x="1523.32" y="-187.9" font-family="Times New Roman,serif" font-size="20.00">Holding(Nothing)</text>
</g>
<!-- 1e806781&#45;835a&#45;44fb&#45;9e4f&#45;033193ecded4&#45;&gt;1cbe0216&#45;4e8d&#45;451f&#45;82f8&#45;491693fae7a1 -->
<g id="edge20" class="edge">
<title>1e806781&#45;835a&#45;44fb&#45;9e4f&#45;033193ecded4&#45;&gt;1cbe0216&#45;4e8d&#45;451f&#45;82f8&#45;491693fae7a1</title>
<path fill="none" stroke="black" d="M1523.32,-262.48C1523.32,-252.33 1523.32,-240.2 1523.32,-229.11"/>
<polygon fill="black" stroke="black" points="1526.82,-229.15 1523.32,-219.15 1519.82,-229.15 1526.82,-229.15"/>
</g>
<!-- 9821637d&#45;d072&#45;4fcc&#45;aefb&#45;b5e7fa887755 -->
<g id="node22" class="node">
<title>9821637d&#45;d072&#45;4fcc&#45;aefb&#45;b5e7fa887755</title>
<polygon fill="lawngreen" stroke="black" points="1784.95,-213.28 1655.7,-213.28 1655.7,-177.28 1784.95,-177.28 1784.95,-213.28"/>
<text text-anchor="middle" x="1720.32" y="-187.9" font-family="Times New Roman,serif" font-size="20.00">Make(Coffee)</text>
</g>
<!-- 1e806781&#45;835a&#45;44fb&#45;9e4f&#45;033193ecded4&#45;&gt;9821637d&#45;d072&#45;4fcc&#45;aefb&#45;b5e7fa887755 -->
<g id="edge21" class="edge">
<title>1e806781&#45;835a&#45;44fb&#45;9e4f&#45;033193ecded4&#45;&gt;9821637d&#45;d072&#45;4fcc&#45;aefb&#45;b5e7fa887755</title>
<path fill="none" stroke="black" d="M1565.58,-266.32C1596.7,-252.24 1639.07,-233.06 1671.61,-218.33"/>
<polygon fill="black" stroke="black" points="1672.76,-221.65 1680.42,-214.34 1669.87,-215.27 1672.76,-221.65"/>
</g>
</g>
</svg>
