<?xml version="1.0" encoding="UTF-8" standalone="no"?>
<!DOCTYPE svg PUBLIC "-//W3C//DTD SVG 1.1//EN"
 "http://www.w3.org/Graphics/SVG/1.1/DTD/svg11.dtd">
<!-- Generated by graphviz version 9.0.0 (20230911.1827)
 -->
<!-- Title: pastafarianism Pages: 1 -->
<svg width="909pt" height="360pt"
 viewBox="0.00 0.00 908.70 360.03" xmlns="http://www.w3.org/2000/svg" xmlns:xlink="http://www.w3.org/1999/xlink">
<g id="graph0" class="graph" transform="scale(1 1) rotate(0) translate(4 356.03)">
<title>pastafarianism</title>
<polygon fill="white" stroke="none" points="-4,4 -4,-356.03 904.7,-356.03 904.7,4 -4,4"/>
<!-- d1ca3ee2&#45;e890&#45;4fd7&#45;b541&#45;bd4c29808ddc -->
<g id="node1" class="node">
<title>d1ca3ee2&#45;e890&#45;4fd7&#45;b541&#45;bd4c29808ddc</title>
<polygon fill="#b0ffff" stroke="black" points="379.95,-352.03 344.45,-352.03 344.45,-320.78 379.95,-320.78 379.95,-352.03"/>
<text text-anchor="middle" x="362.2" y="-329.03" font-family="Times New Roman,serif" font-size="20.00"> ? </text>
</g>
<!-- d7b23c19&#45;aba3&#45;46c5&#45;bdf4&#45;51502c76a99b -->
<g id="node2" class="node">
<title>d7b23c19&#45;aba3&#45;46c5&#45;bdf4&#45;51502c76a99b</title>
<ellipse fill="#ffff80" stroke="black" cx="186.2" cy="-262.68" rx="139.65" ry="22.1"/>
<text text-anchor="middle" x="186.2" y="-255.3" font-family="Times New Roman,serif" font-size="20.00">Low(ACTemperature)</text>
</g>
<!-- d1ca3ee2&#45;e890&#45;4fd7&#45;b541&#45;bd4c29808ddc&#45;&gt;d7b23c19&#45;aba3&#45;46c5&#45;bdf4&#45;51502c76a99b -->
<g id="edge1" class="edge">
<title>d1ca3ee2&#45;e890&#45;4fd7&#45;b541&#45;bd4c29808ddc&#45;&gt;d7b23c19&#45;aba3&#45;46c5&#45;bdf4&#45;51502c76a99b</title>
<path fill="none" stroke="black" d="M344.03,-328C321.02,-318.62 280.26,-302.01 245.92,-288.02"/>
<polygon fill="black" stroke="black" points="247.48,-284.87 236.89,-284.34 244.83,-291.35 247.48,-284.87"/>
</g>
<!-- 44cbf8b5&#45;4181&#45;460c&#45;a9c1&#45;bfbdf4f27e23 -->
<g id="node3" class="node">
<title>44cbf8b5&#45;4181&#45;460c&#45;a9c1&#45;bfbdf4f27e23</title>
<polygon fill="#ff8080" stroke="black" points="380.32,-278.3 344.07,-278.3 344.07,-247.05 380.32,-247.05 380.32,-278.3"/>
<text text-anchor="middle" x="362.2" y="-255.3" font-family="Times New Roman,serif" font-size="20.00">→</text>
</g>
<!-- d1ca3ee2&#45;e890&#45;4fd7&#45;b541&#45;bd4c29808ddc&#45;&gt;44cbf8b5&#45;4181&#45;460c&#45;a9c1&#45;bfbdf4f27e23 -->
<g id="edge2" class="edge">
<title>d1ca3ee2&#45;e890&#45;4fd7&#45;b541&#45;bd4c29808ddc&#45;&gt;44cbf8b5&#45;4181&#45;460c&#45;a9c1&#45;bfbdf4f27e23</title>
<path fill="none" stroke="black" d="M362.2,-320.54C362.2,-311.69 362.2,-300.21 362.2,-289.89"/>
<polygon fill="black" stroke="black" points="365.7,-290.03 362.2,-280.03 358.7,-290.04 365.7,-290.03"/>
</g>
<!-- 7049f538&#45;4c38&#45;45f8&#45;874c&#45;870f89da2fe9 -->
<g id="node10" class="node">
<title>7049f538&#45;4c38&#45;45f8&#45;874c&#45;870f89da2fe9</title>
<polygon fill="#ff8080" stroke="black" points="624.32,-278.3 588.07,-278.3 588.07,-247.05 624.32,-247.05 624.32,-278.3"/>
<text text-anchor="middle" x="606.2" y="-255.3" font-family="Times New Roman,serif" font-size="20.00">→</text>
</g>
<!-- d1ca3ee2&#45;e890&#45;4fd7&#45;b541&#45;bd4c29808ddc&#45;&gt;7049f538&#45;4c38&#45;45f8&#45;874c&#45;870f89da2fe9 -->
<g id="edge9" class="edge">
<title>d1ca3ee2&#45;e890&#45;4fd7&#45;b541&#45;bd4c29808ddc&#45;&gt;7049f538&#45;4c38&#45;45f8&#45;874c&#45;870f89da2fe9</title>
<path fill="none" stroke="black" d="M380.14,-330.13C421.9,-317.85 525.92,-287.28 576.98,-272.27"/>
<polygon fill="black" stroke="black" points="577.84,-275.66 586.45,-269.49 575.86,-268.95 577.84,-275.66"/>
</g>
<!-- 8bff0a94&#45;d464&#45;47c2&#45;8562&#45;dd723ed5382d -->
<g id="node4" class="node">
<title>8bff0a94&#45;d464&#45;47c2&#45;8562&#45;dd723ed5382d</title>
<ellipse fill="#ffff80" stroke="black" cx="249.2" cy="-182.49" rx="77.6" ry="22.1"/>
<text text-anchor="middle" x="249.2" y="-175.11" font-family="Times New Roman,serif" font-size="20.00">Active(AC)</text>
</g>
<!-- 44cbf8b5&#45;4181&#45;460c&#45;a9c1&#45;bfbdf4f27e23&#45;&gt;8bff0a94&#45;d464&#45;47c2&#45;8562&#45;dd723ed5382d -->
<g id="edge3" class="edge">
<title>44cbf8b5&#45;4181&#45;460c&#45;a9c1&#45;bfbdf4f27e23&#45;&gt;8bff0a94&#45;d464&#45;47c2&#45;8562&#45;dd723ed5382d</title>
<path fill="none" stroke="black" d="M343.75,-246.96C340.91,-244.79 338,-242.6 335.2,-240.58 320.41,-229.92 303.8,-218.72 289.14,-209.09"/>
<polygon fill="black" stroke="black" points="291.39,-206.37 281.1,-203.83 287.56,-212.23 291.39,-206.37"/>
</g>
<!-- ac205a8f&#45;bac4&#45;44a7&#45;9980&#45;a89596ea8d33 -->
<g id="node5" class="node">
<title>ac205a8f&#45;bac4&#45;44a7&#45;9980&#45;a89596ea8d33</title>
<polygon fill="#b0ffff" stroke="black" points="379.95,-198.11 344.45,-198.11 344.45,-166.86 379.95,-166.86 379.95,-198.11"/>
<text text-anchor="middle" x="362.2" y="-175.11" font-family="Times New Roman,serif" font-size="20.00"> ? </text>
</g>
<!-- 44cbf8b5&#45;4181&#45;460c&#45;a9c1&#45;bfbdf4f27e23&#45;&gt;ac205a8f&#45;bac4&#45;44a7&#45;9980&#45;a89596ea8d33 -->
<g id="edge4" class="edge">
<title>44cbf8b5&#45;4181&#45;460c&#45;a9c1&#45;bfbdf4f27e23&#45;&gt;ac205a8f&#45;bac4&#45;44a7&#45;9980&#45;a89596ea8d33</title>
<path fill="none" stroke="black" d="M362.2,-246.6C362.2,-236.22 362.2,-222.14 362.2,-209.92"/>
<polygon fill="black" stroke="black" points="365.7,-210.03 362.2,-200.03 358.7,-210.03 365.7,-210.03"/>
</g>
<!-- 429863cb&#45;e044&#45;4928&#45;be68&#45;7a6026d2e687 -->
<g id="node6" class="node">
<title>429863cb&#45;e044&#45;4928&#45;be68&#45;7a6026d2e687</title>
<polygon fill="#ff8080" stroke="black" points="262.32,-117.92 226.07,-117.92 226.07,-86.67 262.32,-86.67 262.32,-117.92"/>
<text text-anchor="middle" x="244.2" y="-94.92" font-family="Times New Roman,serif" font-size="20.00">→</text>
</g>
<!-- ac205a8f&#45;bac4&#45;44a7&#45;9980&#45;a89596ea8d33&#45;&gt;429863cb&#45;e044&#45;4928&#45;be68&#45;7a6026d2e687 -->
<g id="edge5" class="edge">
<title>ac205a8f&#45;bac4&#45;44a7&#45;9980&#45;a89596ea8d33&#45;&gt;429863cb&#45;e044&#45;4928&#45;be68&#45;7a6026d2e687</title>
<path fill="none" stroke="black" d="M344.61,-166.53C341.86,-164.39 338.99,-162.27 336.2,-160.39 311.39,-143.65 300.78,-142.65 272.04,-124.45"/>
<polygon fill="black" stroke="black" points="274.06,-121.59 263.77,-119.04 270.22,-127.44 274.06,-121.59"/>
</g>
<!-- e1993dae&#45;8395&#45;4387&#45;bed0&#45;b1ebe84563a3 -->
<g id="node9" class="node">
<title>e1993dae&#45;8395&#45;4387&#45;bed0&#45;b1ebe84563a3</title>
<polygon fill="lightgreen" stroke="black" points="552.07,-120.29 280.32,-120.29 280.32,-84.29 552.07,-84.29 552.07,-120.29"/>
<text text-anchor="middle" x="416.2" y="-94.92" font-family="Times New Roman,serif" font-size="20.00">PutDown(Anything,Anywhere)</text>
</g>
<!-- ac205a8f&#45;bac4&#45;44a7&#45;9980&#45;a89596ea8d33&#45;&gt;e1993dae&#45;8395&#45;4387&#45;bed0&#45;b1ebe84563a3 -->
<g id="edge8" class="edge">
<title>ac205a8f&#45;bac4&#45;44a7&#45;9980&#45;a89596ea8d33&#45;&gt;e1993dae&#45;8395&#45;4387&#45;bed0&#45;b1ebe84563a3</title>
<path fill="none" stroke="black" d="M372.61,-166.41C379.72,-156.11 389.33,-142.19 397.73,-130.04"/>
<polygon fill="black" stroke="black" points="400.46,-132.24 403.26,-122.02 394.7,-128.26 400.46,-132.24"/>
</g>
<!-- 48a6ed71&#45;8604&#45;4206&#45;bd3e&#45;7a9911de44cf -->
<g id="node7" class="node">
<title>48a6ed71&#45;8604&#45;4206&#45;bd3e&#45;7a9911de44cf</title>
<ellipse fill="#ffff80" stroke="black" cx="114.2" cy="-22.1" rx="114.2" ry="22.1"/>
<text text-anchor="middle" x="114.2" y="-14.72" font-family="Times New Roman,serif" font-size="20.00">Holding(Nothing)</text>
</g>
<!-- 429863cb&#45;e044&#45;4928&#45;be68&#45;7a6026d2e687&#45;&gt;48a6ed71&#45;8604&#45;4206&#45;bd3e&#45;7a9911de44cf -->
<g id="edge6" class="edge">
<title>429863cb&#45;e044&#45;4928&#45;be68&#45;7a6026d2e687&#45;&gt;48a6ed71&#45;8604&#45;4206&#45;bd3e&#45;7a9911de44cf</title>
<path fill="none" stroke="black" d="M225.85,-90.25C208.27,-79.68 181.08,-63.32 157.93,-49.4"/>
<polygon fill="black" stroke="black" points="159.96,-46.54 149.59,-44.39 156.36,-52.54 159.96,-46.54"/>
</g>
<!-- 95755904&#45;2737&#45;4550&#45;a2cc&#45;42b160664b1f -->
<g id="node8" class="node">
<title>95755904&#45;2737&#45;4550&#45;a2cc&#45;42b160664b1f</title>
<polygon fill="lightgreen" stroke="black" points="501.82,-40.1 246.57,-40.1 246.57,-4.1 501.82,-4.1 501.82,-40.1"/>
<text text-anchor="middle" x="374.2" y="-14.72" font-family="Times New Roman,serif" font-size="20.00">Turn(ACTemperature,Down)</text>
</g>
<!-- 429863cb&#45;e044&#45;4928&#45;be68&#45;7a6026d2e687&#45;&gt;95755904&#45;2737&#45;4550&#45;a2cc&#45;42b160664b1f -->
<g id="edge7" class="edge">
<title>429863cb&#45;e044&#45;4928&#45;be68&#45;7a6026d2e687&#45;&gt;95755904&#45;2737&#45;4550&#45;a2cc&#45;42b160664b1f</title>
<path fill="none" stroke="black" d="M262.5,-86.37C265.36,-84.22 268.32,-82.1 271.2,-80.19 289.75,-67.91 311.15,-55.75 329.62,-45.83"/>
<polygon fill="black" stroke="black" points="331.01,-49.05 338.2,-41.27 327.73,-42.87 331.01,-49.05"/>
</g>
<!-- 5b2149db&#45;788f&#45;4bd5&#45;ae22&#45;a97e7e2f7f35 -->
<g id="node11" class="node">
<title>5b2149db&#45;788f&#45;4bd5&#45;ae22&#45;a97e7e2f7f35</title>
<ellipse fill="#ffff80" stroke="black" cx="512.2" cy="-182.49" rx="114.2" ry="22.1"/>
<text text-anchor="middle" x="512.2" y="-175.11" font-family="Times New Roman,serif" font-size="20.00">Holding(Nothing)</text>
</g>
<!-- 7049f538&#45;4c38&#45;45f8&#45;874c&#45;870f89da2fe9&#45;&gt;5b2149db&#45;788f&#45;4bd5&#45;ae22&#45;a97e7e2f7f35 -->
<g id="edge10" class="edge">
<title>7049f538&#45;4c38&#45;45f8&#45;874c&#45;870f89da2fe9&#45;&gt;5b2149db&#45;788f&#45;4bd5&#45;ae22&#45;a97e7e2f7f35</title>
<path fill="none" stroke="black" d="M588.07,-246.6C576.14,-236.68 560.16,-223.39 545.95,-211.56"/>
<polygon fill="black" stroke="black" points="548.46,-209.1 538.54,-205.4 543.99,-214.48 548.46,-209.1"/>
</g>
<!-- 403078e9&#45;cb8e&#45;45e3&#45;b2a1&#45;40b0ed1adf12 -->
<g id="node12" class="node">
<title>403078e9&#45;cb8e&#45;45e3&#45;b2a1&#45;40b0ed1adf12</title>
<ellipse fill="ghostwhite" stroke="black" cx="700.2" cy="-182.49" rx="55.86" ry="22.1"/>
<text text-anchor="middle" x="700.2" y="-175.11" font-family="Times New Roman,serif" font-size="20.00">Inverter</text>
</g>
<!-- 7049f538&#45;4c38&#45;45f8&#45;874c&#45;870f89da2fe9&#45;&gt;403078e9&#45;cb8e&#45;45e3&#45;b2a1&#45;40b0ed1adf12 -->
<g id="edge11" class="edge">
<title>7049f538&#45;4c38&#45;45f8&#45;874c&#45;870f89da2fe9&#45;&gt;403078e9&#45;cb8e&#45;45e3&#45;b2a1&#45;40b0ed1adf12</title>
<path fill="none" stroke="black" d="M624.32,-246.6C636.69,-236.31 653.42,-222.4 668.02,-210.25"/>
<polygon fill="black" stroke="black" points="670.17,-213.02 675.62,-203.93 665.69,-207.64 670.17,-213.02"/>
</g>
<!-- d99377e6&#45;06a9&#45;4147&#45;8a51&#45;d4680e2b4086 -->
<g id="node14" class="node">
<title>d99377e6&#45;06a9&#45;4147&#45;8a51&#45;d4680e2b4086</title>
<polygon fill="lightgreen" stroke="black" points="900.7,-200.49 773.7,-200.49 773.7,-164.49 900.7,-164.49 900.7,-200.49"/>
<text text-anchor="middle" x="837.2" y="-175.11" font-family="Times New Roman,serif" font-size="20.00">Turn(AC,On)</text>
</g>
<!-- 7049f538&#45;4c38&#45;45f8&#45;874c&#45;870f89da2fe9&#45;&gt;d99377e6&#45;06a9&#45;4147&#45;8a51&#45;d4680e2b4086 -->
<g id="edge13" class="edge">
<title>7049f538&#45;4c38&#45;45f8&#45;874c&#45;870f89da2fe9&#45;&gt;d99377e6&#45;06a9&#45;4147&#45;8a51&#45;d4680e2b4086</title>
<path fill="none" stroke="black" d="M624.71,-255.41C656.93,-244.51 724.67,-221.57 775.06,-204.52"/>
<polygon fill="black" stroke="black" points="776.06,-207.87 784.41,-201.35 773.82,-201.24 776.06,-207.87"/>
</g>
<!-- c682a403&#45;59d5&#45;45b5&#45;85f7&#45;fd9cc05dfcb1 -->
<g id="node13" class="node">
<title>c682a403&#45;59d5&#45;45b5&#45;85f7&#45;fd9cc05dfcb1</title>
<ellipse fill="#ffff80" stroke="black" cx="700.2" cy="-102.29" rx="77.6" ry="22.1"/>
<text text-anchor="middle" x="700.2" y="-94.92" font-family="Times New Roman,serif" font-size="20.00">Active(AC)</text>
</g>
<!-- 403078e9&#45;cb8e&#45;45e3&#45;b2a1&#45;40b0ed1adf12&#45;&gt;c682a403&#45;59d5&#45;45b5&#45;85f7&#45;fd9cc05dfcb1 -->
<g id="edge12" class="edge">
<title>403078e9&#45;cb8e&#45;45e3&#45;b2a1&#45;40b0ed1adf12&#45;&gt;c682a403&#45;59d5&#45;45b5&#45;85f7&#45;fd9cc05dfcb1</title>
<path fill="none" stroke="black" d="M700.2,-160.12C700.2,-152.71 700.2,-144.21 700.2,-136.09"/>
<polygon fill="black" stroke="black" points="703.7,-136.15 700.2,-126.15 696.7,-136.15 703.7,-136.15"/>
</g>
</g>
</svg>
