<?xml version="1.0" encoding="UTF-8" standalone="no"?>
<!DOCTYPE svg PUBLIC "-//W3C//DTD SVG 1.1//EN"
 "http://www.w3.org/Graphics/SVG/1.1/DTD/svg11.dtd">
<!-- Generated by graphviz version 9.0.0 (20230911.1827)
 -->
<!-- Title: pastafarianism Pages: 1 -->
<svg width="934pt" height="352pt"
 viewBox="0.00 0.00 934.43 351.83" xmlns="http://www.w3.org/2000/svg" xmlns:xlink="http://www.w3.org/1999/xlink">
<g id="graph0" class="graph" transform="scale(1 1) rotate(0) translate(4 347.83)">
<title>pastafarianism</title>
<polygon fill="white" stroke="none" points="-4,4 -4,-347.83 930.43,-347.83 930.43,4 -4,4"/>
<!-- 3cc93283&#45;6f35&#45;4a5b&#45;a823&#45;667fda9e7abd -->
<g id="node1" class="node">
<title>3cc93283&#45;6f35&#45;4a5b&#45;a823&#45;667fda9e7abd</title>
<polygon fill="#b0ffff" stroke="black" points="372.43,-343.83 347.43,-343.83 347.43,-312.58 372.43,-312.58 372.43,-343.83"/>
<text text-anchor="middle" x="359.93" y="-320.83" font-family="Times New Roman,serif" font-size="20.00">?</text>
</g>
<!-- 9e4a23ae&#45;384d&#45;4ae1&#45;b0bb&#45;d6c7d42f4747 -->
<g id="node2" class="node">
<title>9e4a23ae&#45;384d&#45;4ae1&#45;b0bb&#45;d6c7d42f4747</title>
<ellipse fill="#ffff80" stroke="black" cx="161.93" cy="-254.49" rx="161.93" ry="22.1"/>
<text text-anchor="middle" x="161.93" y="-247.11" font-family="Times New Roman,serif" font-size="20.00">Is(ACTemperature,Down)</text>
</g>
<!-- 3cc93283&#45;6f35&#45;4a5b&#45;a823&#45;667fda9e7abd&#45;&gt;9e4a23ae&#45;384d&#45;4ae1&#45;b0bb&#45;d6c7d42f4747 -->
<g id="edge1" class="edge">
<title>3cc93283&#45;6f35&#45;4a5b&#45;a823&#45;667fda9e7abd&#45;&gt;9e4a23ae&#45;384d&#45;4ae1&#45;b0bb&#45;d6c7d42f4747</title>
<path fill="none" stroke="black" d="M346.94,-322.5C323.14,-313.88 271.07,-295.02 228.22,-279.5"/>
<polygon fill="black" stroke="black" points="229.56,-276.26 218.97,-276.15 227.18,-282.84 229.56,-276.26"/>
</g>
<!-- 1f15add2&#45;2ef8&#45;4384&#45;9ca4&#45;f930e1ecacef -->
<g id="node3" class="node">
<title>1f15add2&#45;2ef8&#45;4384&#45;9ca4&#45;f930e1ecacef</title>
<polygon fill="#ff8080" stroke="black" points="378.05,-270.11 341.8,-270.11 341.8,-238.86 378.05,-238.86 378.05,-270.11"/>
<text text-anchor="middle" x="359.93" y="-247.11" font-family="Times New Roman,serif" font-size="20.00">→</text>
</g>
<!-- 3cc93283&#45;6f35&#45;4a5b&#45;a823&#45;667fda9e7abd&#45;&gt;1f15add2&#45;2ef8&#45;4384&#45;9ca4&#45;f930e1ecacef -->
<g id="edge2" class="edge">
<title>3cc93283&#45;6f35&#45;4a5b&#45;a823&#45;667fda9e7abd&#45;&gt;1f15add2&#45;2ef8&#45;4384&#45;9ca4&#45;f930e1ecacef</title>
<path fill="none" stroke="black" d="M359.93,-312.35C359.93,-303.5 359.93,-292.02 359.93,-281.69"/>
<polygon fill="black" stroke="black" points="363.43,-281.84 359.93,-271.84 356.43,-281.84 363.43,-281.84"/>
</g>
<!-- 1d74f511&#45;6321&#45;416b&#45;a7f9&#45;a2c051c6f981 -->
<g id="node10" class="node">
<title>1d74f511&#45;6321&#45;416b&#45;a7f9&#45;a2c051c6f981</title>
<polygon fill="#ff8080" stroke="black" points="583.05,-270.11 546.8,-270.11 546.8,-238.86 583.05,-238.86 583.05,-270.11"/>
<text text-anchor="middle" x="564.93" y="-247.11" font-family="Times New Roman,serif" font-size="20.00">→</text>
</g>
<!-- 3cc93283&#45;6f35&#45;4a5b&#45;a823&#45;667fda9e7abd&#45;&gt;1d74f511&#45;6321&#45;416b&#45;a7f9&#45;a2c051c6f981 -->
<g id="edge9" class="edge">
<title>3cc93283&#45;6f35&#45;4a5b&#45;a823&#45;667fda9e7abd&#45;&gt;1d74f511&#45;6321&#45;416b&#45;a7f9&#45;a2c051c6f981</title>
<path fill="none" stroke="black" d="M372.75,-322.72C405.07,-311.41 490.52,-281.52 535.81,-265.67"/>
<polygon fill="black" stroke="black" points="536.68,-269.07 544.97,-262.47 534.37,-262.47 536.68,-269.07"/>
</g>
<!-- b573a9e1&#45;d411&#45;42b1&#45;b04a&#45;7a11b3460803 -->
<g id="node4" class="node">
<title>b573a9e1&#45;d411&#45;42b1&#45;b04a&#45;7a11b3460803</title>
<ellipse fill="#ffff80" stroke="black" cx="257.93" cy="-174.29" rx="71.24" ry="22.1"/>
<text text-anchor="middle" x="257.93" y="-166.92" font-family="Times New Roman,serif" font-size="20.00">Is(AC,On)</text>
</g>
<!-- 1f15add2&#45;2ef8&#45;4384&#45;9ca4&#45;f930e1ecacef&#45;&gt;b573a9e1&#45;d411&#45;42b1&#45;b04a&#45;7a11b3460803 -->
<g id="edge3" class="edge">
<title>1f15add2&#45;2ef8&#45;4384&#45;9ca4&#45;f930e1ecacef&#45;&gt;b573a9e1&#45;d411&#45;42b1&#45;b04a&#45;7a11b3460803</title>
<path fill="none" stroke="black" d="M341.36,-238.93C338.54,-236.73 335.66,-234.5 332.93,-232.39 320,-222.42 305.75,-211.54 293.18,-201.99"/>
<polygon fill="black" stroke="black" points="295.65,-199.47 285.57,-196.21 291.42,-205.04 295.65,-199.47"/>
</g>
<!-- d8d0e155&#45;d190&#45;4237&#45;9ba3&#45;7ef76d845ea4 -->
<g id="node5" class="node">
<title>d8d0e155&#45;d190&#45;4237&#45;9ba3&#45;7ef76d845ea4</title>
<polygon fill="#b0ffff" stroke="black" points="372.43,-189.92 347.43,-189.92 347.43,-158.67 372.43,-158.67 372.43,-189.92"/>
<text text-anchor="middle" x="359.93" y="-166.92" font-family="Times New Roman,serif" font-size="20.00">?</text>
</g>
<!-- 1f15add2&#45;2ef8&#45;4384&#45;9ca4&#45;f930e1ecacef&#45;&gt;d8d0e155&#45;d190&#45;4237&#45;9ba3&#45;7ef76d845ea4 -->
<g id="edge4" class="edge">
<title>1f15add2&#45;2ef8&#45;4384&#45;9ca4&#45;f930e1ecacef&#45;&gt;d8d0e155&#45;d190&#45;4237&#45;9ba3&#45;7ef76d845ea4</title>
<path fill="none" stroke="black" d="M359.93,-238.41C359.93,-228.02 359.93,-213.95 359.93,-201.72"/>
<polygon fill="black" stroke="black" points="363.43,-201.84 359.93,-191.84 356.43,-201.84 363.43,-201.84"/>
</g>
<!-- 5ced2d60&#45;8b01&#45;4312&#45;97c4&#45;19e366000072 -->
<g id="node6" class="node">
<title>5ced2d60&#45;8b01&#45;4312&#45;97c4&#45;19e366000072</title>
<polygon fill="#ff8080" stroke="black" points="292.05,-113.82 255.8,-113.82 255.8,-82.57 292.05,-82.57 292.05,-113.82"/>
<text text-anchor="middle" x="273.93" y="-90.82" font-family="Times New Roman,serif" font-size="20.00">→</text>
</g>
<!-- d8d0e155&#45;d190&#45;4237&#45;9ba3&#45;7ef76d845ea4&#45;&gt;5ced2d60&#45;8b01&#45;4312&#45;97c4&#45;19e366000072 -->
<g id="edge5" class="edge">
<title>d8d0e155&#45;d190&#45;4237&#45;9ba3&#45;7ef76d845ea4&#45;&gt;5ced2d60&#45;8b01&#45;4312&#45;97c4&#45;19e366000072</title>
<path fill="none" stroke="black" d="M347.05,-160.64C344.09,-157.82 340.93,-154.87 337.93,-152.19 326.12,-141.67 312.68,-130.43 301.17,-121.03"/>
<polygon fill="black" stroke="black" points="303.58,-118.47 293.61,-114.88 299.16,-123.9 303.58,-118.47"/>
</g>
<!-- 149b7ca4&#45;471f&#45;494a&#45;b9eb&#45;f7ddc4f2ecf3 -->
<g id="node9" class="node">
<title>149b7ca4&#45;471f&#45;494a&#45;b9eb&#45;f7ddc4f2ecf3</title>
<polygon fill="lightgreen" stroke="black" points="581.8,-116.19 310.05,-116.19 310.05,-80.19 581.8,-80.19 581.8,-116.19"/>
<text text-anchor="middle" x="445.93" y="-90.82" font-family="Times New Roman,serif" font-size="20.00">PutDown(Anything,Anywhere)</text>
</g>
<!-- d8d0e155&#45;d190&#45;4237&#45;9ba3&#45;7ef76d845ea4&#45;&gt;149b7ca4&#45;471f&#45;494a&#45;b9eb&#45;f7ddc4f2ecf3 -->
<g id="edge8" class="edge">
<title>d8d0e155&#45;d190&#45;4237&#45;9ba3&#45;7ef76d845ea4&#45;&gt;149b7ca4&#45;471f&#45;494a&#45;b9eb&#45;f7ddc4f2ecf3</title>
<path fill="none" stroke="black" d="M372.81,-160.64C375.77,-157.82 378.93,-154.87 381.93,-152.19 392.7,-142.59 404.82,-132.41 415.59,-123.56"/>
<polygon fill="black" stroke="black" points="417.56,-126.47 423.09,-117.44 413.13,-121.05 417.56,-126.47"/>
</g>
<!-- a2b8d4bf&#45;010a&#45;4096&#45;b4f1&#45;06f0b2dcd95e -->
<g id="node7" class="node">
<title>a2b8d4bf&#45;010a&#45;4096&#45;b4f1&#45;06f0b2dcd95e</title>
<ellipse fill="#ffff80" stroke="black" cx="143.93" cy="-22.1" rx="114.2" ry="22.1"/>
<text text-anchor="middle" x="143.93" y="-14.72" font-family="Times New Roman,serif" font-size="20.00">Holding(Nothing)</text>
</g>
<!-- 5ced2d60&#45;8b01&#45;4312&#45;97c4&#45;19e366000072&#45;&gt;a2b8d4bf&#45;010a&#45;4096&#45;b4f1&#45;06f0b2dcd95e -->
<g id="edge6" class="edge">
<title>5ced2d60&#45;8b01&#45;4312&#45;97c4&#45;19e366000072&#45;&gt;a2b8d4bf&#45;010a&#45;4096&#45;b4f1&#45;06f0b2dcd95e</title>
<path fill="none" stroke="black" d="M255.58,-86.74C238.45,-76.97 212.18,-62 189.42,-49.03"/>
<polygon fill="black" stroke="black" points="191.33,-46.09 180.91,-44.17 187.86,-52.17 191.33,-46.09"/>
</g>
<!-- 0c6604f3&#45;36df&#45;499b&#45;8a56&#45;84289c53f910 -->
<g id="node8" class="node">
<title>0c6604f3&#45;36df&#45;499b&#45;8a56&#45;84289c53f910</title>
<polygon fill="lightgreen" stroke="black" points="531.55,-40.1 276.3,-40.1 276.3,-4.1 531.55,-4.1 531.55,-40.1"/>
<text text-anchor="middle" x="403.93" y="-14.72" font-family="Times New Roman,serif" font-size="20.00">Turn(ACTemperature,Down)</text>
</g>
<!-- 5ced2d60&#45;8b01&#45;4312&#45;97c4&#45;19e366000072&#45;&gt;0c6604f3&#45;36df&#45;499b&#45;8a56&#45;84289c53f910 -->
<g id="edge7" class="edge">
<title>5ced2d60&#45;8b01&#45;4312&#45;97c4&#45;19e366000072&#45;&gt;0c6604f3&#45;36df&#45;499b&#45;8a56&#45;84289c53f910</title>
<path fill="none" stroke="black" d="M292.43,-85.35C295.26,-83.6 298.16,-81.83 300.93,-80.19 320.68,-68.52 342.9,-56.1 361.64,-45.85"/>
<polygon fill="black" stroke="black" points="363.22,-48.97 370.32,-41.11 359.87,-42.83 363.22,-48.97"/>
</g>
<!-- 79c6fc3e&#45;b3fb&#45;4bab&#45;a5ab&#45;39ea75ebbd1c -->
<g id="node11" class="node">
<title>79c6fc3e&#45;b3fb&#45;4bab&#45;a5ab&#45;39ea75ebbd1c</title>
<ellipse fill="#ffff80" stroke="black" cx="462.93" cy="-174.29" rx="72.3" ry="22.1"/>
<text text-anchor="middle" x="462.93" y="-166.92" font-family="Times New Roman,serif" font-size="20.00">Is(AC,Off)</text>
</g>
<!-- 1d74f511&#45;6321&#45;416b&#45;a7f9&#45;a2c051c6f981&#45;&gt;79c6fc3e&#45;b3fb&#45;4bab&#45;a5ab&#45;39ea75ebbd1c -->
<g id="edge10" class="edge">
<title>1d74f511&#45;6321&#45;416b&#45;a7f9&#45;a2c051c6f981&#45;&gt;79c6fc3e&#45;b3fb&#45;4bab&#45;a5ab&#45;39ea75ebbd1c</title>
<path fill="none" stroke="black" d="M546.69,-239.51C533.15,-229.13 514.28,-214.65 497.87,-202.08"/>
<polygon fill="black" stroke="black" points="500.32,-199.55 490.26,-196.24 496.06,-205.1 500.32,-199.55"/>
</g>
<!-- b215b2df&#45;15a0&#45;44cc&#45;bdff&#45;5a15a91a36ae -->
<g id="node12" class="node">
<title>b215b2df&#45;15a0&#45;44cc&#45;bdff&#45;5a15a91a36ae</title>
<ellipse fill="#ffff80" stroke="black" cx="666.93" cy="-174.29" rx="114.2" ry="22.1"/>
<text text-anchor="middle" x="666.93" y="-166.92" font-family="Times New Roman,serif" font-size="20.00">Holding(Nothing)</text>
</g>
<!-- 1d74f511&#45;6321&#45;416b&#45;a7f9&#45;a2c051c6f981&#45;&gt;b215b2df&#45;15a0&#45;44cc&#45;bdff&#45;5a15a91a36ae -->
<g id="edge11" class="edge">
<title>1d74f511&#45;6321&#45;416b&#45;a7f9&#45;a2c051c6f981&#45;&gt;b215b2df&#45;15a0&#45;44cc&#45;bdff&#45;5a15a91a36ae</title>
<path fill="none" stroke="black" d="M583.16,-239.51C596.41,-229.35 614.77,-215.27 630.93,-202.89"/>
<polygon fill="black" stroke="black" points="632.63,-206 638.43,-197.14 628.37,-200.44 632.63,-206"/>
</g>
<!-- 4587a9ec&#45;fab2&#45;4b65&#45;8b9d&#45;2836668409a9 -->
<g id="node13" class="node">
<title>4587a9ec&#45;fab2&#45;4b65&#45;8b9d&#45;2836668409a9</title>
<polygon fill="lightgreen" stroke="black" points="926.43,-192.29 799.43,-192.29 799.43,-156.29 926.43,-156.29 926.43,-192.29"/>
<text text-anchor="middle" x="862.93" y="-166.92" font-family="Times New Roman,serif" font-size="20.00">Turn(AC,On)</text>
</g>
<!-- 1d74f511&#45;6321&#45;416b&#45;a7f9&#45;a2c051c6f981&#45;&gt;4587a9ec&#45;fab2&#45;4b65&#45;8b9d&#45;2836668409a9 -->
<g id="edge12" class="edge">
<title>1d74f511&#45;6321&#45;416b&#45;a7f9&#45;a2c051c6f981&#45;&gt;4587a9ec&#45;fab2&#45;4b65&#45;8b9d&#45;2836668409a9</title>
<path fill="none" stroke="black" d="M583.36,-249.03C621.84,-239.67 713.5,-217.12 789.93,-196.39 790.74,-196.17 791.56,-195.95 792.38,-195.72"/>
<polygon fill="black" stroke="black" points="793.05,-199.17 801.76,-193.13 791.18,-192.42 793.05,-199.17"/>
</g>
</g>
</svg>
